<svg width="128" height="128" xmlns="http://www.w3.org/2000/svg" viewBox="0 0 128 128">
  <!-- Base platform -->
  <rect x="8" y="110" width="112" height="12" fill="#1a202c" rx="6"/>
  <rect x="12" y="108" width="104" height="4" fill="#2d3748" rx="2"/>
  
  <!-- Main frame structure -->
  <rect x="32" y="20" width="12" height="92" fill="#2d3748" rx="4"/>
  <rect x="84" y="20" width="12" height="92" fill="#2d3748" rx="4"/>
  <rect x="32" y="20" width="64" height="12" fill="#2d3748" rx="4"/>
  
  <!-- Seat with detailed padding -->
  <rect x="40" y="70" width="32" height="28" fill="#4a5568" rx="6"/>
  <rect x="42" y="72" width="28" height="24" fill="#e2e8f0" rx="4"/>
  <rect x="44" y="74" width="24" height="20" fill="#f7fafc" rx="3"/>
  
  <!-- Seat back -->
  <rect x="40" y="40" width="32" height="35" fill="#4a5568" rx="6"/>
  <rect x="42" y="42" width="28" height="31" fill="#e2e8f0" rx="4"/>
  <rect x="44" y="44" width="24" height="27" fill="#f7fafc" rx="3"/>
  
  <!-- Preacher pad (bicep curl pad) with realistic shape -->
  <ellipse cx="26" cy="60" rx="18" ry="16" fill="#e53e3e" transform="rotate(-30 26 60)"/>
  <ellipse cx="26" cy="60" rx="16" ry="14" fill="#fc8181" transform="rotate(-30 26 60)"/>
  <ellipse cx="26" cy="60" rx="14" ry="12" fill="#feb2b2" transform="rotate(-30 26 60)"/>
  
  <!-- Preacher pad support -->
  <rect x="16" y="76" width="20" height="12" fill="#4a5568" rx="4"/>
  <rect x="18" y="78" width="16" height="8" fill="#718096" rx="3"/>
  
  <!-- Curl arm mechanism with detailed pivot -->
  <circle cx="26" cy="55" r="10" fill="#2d3748"/>
  <circle cx="26" cy="55" r="8" fill="#4a5568"/>
  <circle cx="26" cy="55" r="4" fill="#718096"/>
  
  <!-- Curl bar with realistic proportions -->
  <rect x="8" y="45" width="36" height="6" fill="#1a202c" rx="3"/>
  <rect x="9" y="46" width="34" height="4" fill="#718096" rx="2"/>
  
  <!-- Curl handles with detailed grips -->
  <rect x="6" y="42" width="6" height="12" fill="#e53e3e" rx="3"/>
  <rect x="7" y="43" width="4" height="10" fill="#fc8181" rx="2"/>
  <rect x="36" y="42" width="6" height="12" fill="#e53e3e" rx="3"/>
  <rect x="37" y="43" width="4" height="10" fill="#fc8181" rx="2"/>
  
  <!-- Handle grip texture -->
  <rect x="7.5" y="44" width="3" height="1" fill="#e53e3e"/>
  <rect x="7.5" y="46" width="3" height="1" fill="#e53e3e"/>
  <rect x="7.5" y="48" width="3" height="1" fill="#e53e3e"/>
  <rect x="7.5" y="50" width="3" height="1" fill="#e53e3e"/>
  <rect x="37.5" y="44" width="3" height="1" fill="#e53e3e"/>
  <rect x="37.5" y="46" width="3" height="1" fill="#e53e3e"/>
  <rect x="37.5" y="48" width="3" height="1" fill="#e53e3e"/>
  <rect x="37.5" y="50" width="3" height="1" fill="#e53e3e"/>
  
  <!-- Arm positioning support -->
  <rect x="18" y="35" width="16" height="8" fill="#4a5568" rx="3"/>
  <rect x="20" y="37" width="12" height="4" fill="#e2e8f0" rx="2"/>
  
  <!-- Weight stack with individual plates -->
  <rect x="104" y="15" width="16" height="75" fill="#1a202c" rx="4"/>
  <rect x="106" y="18" width="12" height="8" fill="#4a5568" rx="1"/>
  <rect x="106" y="28" width="12" height="8" fill="#4a5568" rx="1"/>
  <rect x="106" y="38" width="12" height="8" fill="#e53e3e" rx="1"/>
  <rect x="106" y="48" width="12" height="8" fill="#4a5568" rx="1"/>
  <rect x="106" y="58" width="12" height="8" fill="#4a5568" rx="1"/>
  <rect x="106" y="68" width="12" height="8" fill="#4a5568" rx="1"/>
  <rect x="106" y="78" width="12" height="8" fill="#4a5568" rx="1"/>
  
  <!-- Weight stack guide rod -->
  <rect x="111.5" y="15" width="2" height="75" fill="#718096" rx="1"/>
  
  <!-- Pulley system -->
  <circle cx="94" cy="30" r="6" fill="#4a5568"/>
  <circle cx="94" cy="30" r="4" fill="#718096"/>
  <circle cx="94" cy="30" r="2" fill="#e2e8f0"/>
  
  <!-- Cable routing -->
  <rect x="88" y="30" width="12" height="2" fill="#e2e8f0"/>
  <rect x="26" y="30" width="2" height="25" fill="#e2e8f0"/>
  <rect x="26" y="30" width="64" height="2" fill="#e2e8f0"/>
  
  <!-- Safety pin -->
  <rect x="102" y="45" width="4" height="12" fill="#fbbf24" rx="1"/>
  <circle cx="104" cy="51" r="2" fill="#f59e0b"/>
  
  <!-- Pad height adjustment mechanism -->
  <rect x="30" y="88" width="8" height="8" fill="#2d3748" rx="2"/>
  <circle cx="34" cy="92" r="2" fill="#fbbf24"/>
  
  <!-- Support legs -->
  <rect x="44" y="96" width="6" height="16" fill="#2d3748" rx="1"/>
  <rect x="66" y="96" width="6" height="16" fill="#2d3748" rx="1"/>
  <rect x="20" y="86" width="6" height="26" fill="#2d3748" rx="1"/>
  
  <!-- Footrest -->
  <rect x="20" y="98" width="68" height="8" fill="#4a5568" rx="3"/>
  <rect x="22" y="100" width="64" height="4" fill="#718096" rx="2"/>
</svg>