<svg width="60" height="45" xmlns="http://www.w3.org/2000/svg" viewBox="0 0 60 45">
  <!-- Machine base -->
  <rect x="5" y="35" width="50" height="8" fill="#2d3748" rx="2"/>
  
  <!-- Platform for standing -->
  <rect x="15" y="30" width="20" height="8" fill="#718096" rx="1"/>
  
  <!-- Calf raise mechanism -->
  <rect x="20" y="25" width="10" height="8" fill="#e53e3e" rx="2"/>
  
  <!-- Support handles -->
  <rect x="8" y="15" width="3" height="15" fill="#718096" rx="1"/>
  <rect x="44" y="15" width="3" height="15" fill="#718096" rx="1"/>
  
  <!-- Weight stack -->
  <rect x="48" y="8" width="8" height="22" fill="#2d3748" rx="1"/>
  <rect x="49" y="10" width="6" height="3" fill="#4a5568"/>
  <rect x="49" y="14" width="6" height="3" fill="#4a5568"/>
  <rect x="49" y="18" width="6" height="3" fill="#4a5568"/>
  <rect x="49" y="22" width="6" height="3" fill="#4a5568"/>
  <rect x="49" y="26" width="6" height="3" fill="#4a5568"/>
  
  <!-- Support frame -->
  <rect x="18" y="8" width="3" height="22" fill="#2d3748"/>
  <rect x="34" y="8" width="3" height="22" fill="#2d3748"/>
  <rect x="21" y="8" width="13" height="3" fill="#2d3748"/>
</svg>