<svg width="128" height="128" xmlns="http://www.w3.org/2000/svg" viewBox="0 0 128 128">
  <!-- Base platform -->
  <rect x="8" y="110" width="112" height="12" fill="#1a202c" rx="6"/>
  <rect x="12" y="108" width="104" height="4" fill="#2d3748" rx="2"/>
  
  <!-- Main frame structure -->
  <rect x="16" y="30" width="8" height="82" fill="#2d3748" rx="2"/>
  <rect x="104" y="30" width="8" height="82" fill="#2d3748" rx="2"/>
  <rect x="16" y="30" width="96" height="8" fill="#2d3748" rx="2"/>
  
  <!-- Seat with detailed padding -->
  <rect x="28" y="70" width="32" height="28" fill="#4a5568" rx="6"/>
  <rect x="30" y="72" width="28" height="24" fill="#e2e8f0" rx="4"/>
  <rect x="32" y="74" width="24" height="20" fill="#f7fafc" rx="3"/>
  
  <!-- Seat back with cushioning -->
  <rect x="28" y="45" width="32" height="28" fill="#4a5568" rx="6"/>
  <rect x="30" y="47" width="28" height="24" fill="#e2e8f0" rx="4"/>
  <rect x="32" y="49" width="24" height="20" fill="#f7fafc" rx="3"/>
  
  <!-- Central pivot mechanism -->
  <circle cx="72" cy="58" r="8" fill="#2d3748"/>
  <circle cx="72" cy="58" r="6" fill="#4a5568"/>
  <circle cx="72" cy="58" r="3" fill="#718096"/>
  
  <!-- Left handle arm with realistic joint -->
  <rect x="56" y="50" width="20" height="6" fill="#4a5568" rx="3"/>
  <circle cx="52" cy="53" r="4" fill="#2d3748"/>
  <rect x="40" y="48" width="16" height="4" fill="#1a202c" rx="2"/>
  <rect x="38" y="47" width="6" height="6" fill="#e53e3e" rx="3"/>
  
  <!-- Right handle arm with realistic joint -->
  <rect x="76" y="65" width="20" height="6" fill="#4a5568" rx="3"/>
  <circle cx="100" cy="68" r="4" fill="#2d3748"/>
  <rect x="96" y="63" width="16" height="4" fill="#1a202c" rx="2"/>
  <rect x="110" y="62" width="6" height="6" fill="#e53e3e" rx="3"/>
  
  <!-- Weight stack with individual plates -->
  <rect x="108" y="15" width="16" height="85" fill="#1a202c" rx="4"/>
  <!-- Individual weight plates -->
  <rect x="110" y="18" width="12" height="8" fill="#4a5568" rx="1"/>
  <rect x="110" y="28" width="12" height="8" fill="#4a5568" rx="1"/>
  <rect x="110" y="38" width="12" height="8" fill="#e53e3e" rx="1"/>
  <rect x="110" y="48" width="12" height="8" fill="#4a5568" rx="1"/>
  <rect x="110" y="58" width="12" height="8" fill="#4a5568" rx="1"/>
  <rect x="110" y="68" width="12" height="8" fill="#4a5568" rx="1"/>
  <rect x="110" y="78" width="12" height="8" fill="#4a5568" rx="1"/>
  <rect x="110" y="88" width="12" height="8" fill="#4a5568" rx="1"/>
  
  <!-- Weight stack guide rod -->
  <rect x="115.5" y="15" width="2" height="85" fill="#718096" rx="1"/>
  
  <!-- Cable system -->
  <circle cx="96" cy="22" r="4" fill="#4a5568"/>
  <circle cx="96" cy="22" r="2" fill="#718096"/>
  <rect x="94" y="22" width="8" height="2" fill="#e2e8f0"/>
  <rect x="96" y="22" width="2" height="40" fill="#e2e8f0"/>
  
  <!-- Footrest -->
  <rect x="20" y="98" width="40" height="8" fill="#4a5568" rx="3"/>
  <rect x="22" y="100" width="36" height="4" fill="#718096" rx="2"/>
  
  <!-- Safety pin -->
  <rect x="106" y="45" width="4" height="12" fill="#fbbf24" rx="1"/>
  <circle cx="108" cy="51" r="2" fill="#f59e0b"/>
</svg>