<svg width="128" height="128" xmlns="http://www.w3.org/2000/svg" viewBox="0 0 128 128">
  <!-- Simple base -->
  <rect x="16" y="110" width="96" height="8" fill="#2d3748" rx="4"/>
  
  <!-- Main frame structure -->
  <rect x="20" y="40" width="6" height="75" fill="#4a5568" rx="3"/>
  <rect x="102" y="40" width="6" height="75" fill="#4a5568" rx="3"/>
  <rect x="20" y="40" width="88" height="6" fill="#4a5568" rx="3"/>
  
  <!-- Seat -->
  <rect x="30" y="80" width="28" height="20" fill="#e2e8f0" rx="6"/>
  
  <!-- Seat back -->
  <rect x="30" y="50" width="28" height="32" fill="#e2e8f0" rx="6"/>
  
  <!-- Handles -->
  <circle cx="70" cy="66" r="3" fill="#4a5568"/>
  <rect x="67" y="55" width="15" height="3" fill="#6b7280" rx="1"/>
  <rect x="67" y="75" width="15" height="3" fill="#6b7280" rx="1"/>
  <circle cx="84" cy="56" r="2" fill="#e53e3e"/>
  <circle cx="84" cy="76" r="2" fill="#e53e3e"/>
  
  <!-- Weight stack -->
  <rect x="100" y="20" width="16" height="60" fill="#374151" rx="4"/>
  <rect x="102" y="25" width="12" height="6" fill="#6b7280" rx="1"/>
  <rect x="102" y="35" width="12" height="6" fill="#e53e3e" rx="1"/>
  <rect x="102" y="45" width="12" height="6" fill="#6b7280" rx="1"/>
  <rect x="102" y="55" width="12" height="6" fill="#6b7280" rx="1"/>
  <rect x="102" y="65" width="12" height="6" fill="#6b7280" rx="1"/>
  
  <!-- Weight guide -->
  <rect x="107" y="20" width="2" height="60" fill="#9ca3af"/>
</svg>