<svg width="60" height="45" xmlns="http://www.w3.org/2000/svg" viewBox="0 0 60 45">
  <!-- Machine base and frame -->
  <rect x="3" y="35" width="54" height="8" fill="#1a202c" rx="3"/>
  <rect x="5" y="32" width="50" height="4" fill="#2d3748" rx="2"/>
  
  <!-- Main support frame -->
  <rect x="8" y="12" width="4" height="25" fill="#2d3748" rx="1"/>
  <rect x="8" y="12" width="44" height="4" fill="#2d3748" rx="1"/>
  <rect x="48" y="12" width="4" height="25" fill="#2d3748" rx="1"/>
  
  <!-- Seat with padding -->
  <rect x="14" y="22" width="14" height="12" fill="#4a5568" rx="3"/>
  <rect x="15" y="23" width="12" height="10" fill="#e2e8f0" rx="2"/>
  <!-- Seat back -->
  <rect x="14" y="14" width="14" height="10" fill="#4a5568" rx="3"/>
  <rect x="15" y="15" width="12" height="8" fill="#e2e8f0" rx="2"/>
  
  <!-- Chest press handles with pivot -->
  <circle cx="35" cy="20" r="3" fill="#2d3748"/>
  <rect x="32" y="18" width="6" height="4" fill="#718096" rx="2"/>
  <!-- Left handle -->
  <rect x="28" y="15" width="8" height="2" fill="#4a5568" rx="1"/>
  <circle cx="26" cy="16" r="1.5" fill="#e53e3e"/>
  <!-- Right handle -->
  <rect x="36" y="25" width="8" height="2" fill="#4a5568" rx="1"/>
  <circle cx="46" cy="26" r="1.5" fill="#e53e3e"/>
  
  <!-- Weight stack with detail -->
  <rect x="50" y="6" width="8" height="28" fill="#1a202c" rx="2"/>
  <rect x="51" y="8" width="6" height="3" fill="#4a5568" rx="0.5"/>
  <rect x="51" y="12" width="6" height="3" fill="#4a5568" rx="0.5"/>
  <rect x="51" y="16" width="6" height="3" fill="#e53e3e" rx="0.5"/>
  <rect x="51" y="20" width="6" height="3" fill="#4a5568" rx="0.5"/>
  <rect x="51" y="24" width="6" height="3" fill="#4a5568" rx="0.5"/>
  <rect x="51" y="28" width="6" height="3" fill="#4a5568" rx="0.5"/>
  
  <!-- Weight stack guide rod -->
  <rect x="53.5" y="6" width="1" height="28" fill="#718096"/>
  
  <!-- Cable and pulley system -->
  <circle cx="46" cy="10" r="2" fill="#4a5568"/>
  <rect x="44" y="10" width="4" height="1" fill="#718096"/>
  <rect x="46" y="10" width="1" height="15" fill="#e2e8f0"/>
</svg>