<svg width="128" height="128" xmlns="http://www.w3.org/2000/svg" viewBox="0 0 128 128">
  <!-- Base -->
  <rect x="16" y="110" width="96" height="8" fill="#2d3748" rx="4"/>
  
  <!-- Main upright post -->
  <rect x="60" y="25" width="8" height="90" fill="#4a5568" rx="4"/>
  
  <!-- Console/display -->
  <rect x="45" y="25" width="38" height="12" fill="#374151" rx="6"/>
  <rect x="48" y="28" width="32" height="6" fill="#9ca3af" rx="2"/>
  
  <!-- Moving handles -->
  <rect x="35" y="40" width="6" height="35" fill="#6b7280" rx="3"/>
  <rect x="87" y="40" width="6" height="35" fill="#6b7280" rx="3"/>
  <circle cx="38" cy="38" r="3" fill="#e53e3e"/>
  <circle cx="90" cy="38" r="3" fill="#e53e3e"/>
  
  <!-- Foot pedals -->
  <ellipse cx="45" cy="85" rx="12" ry="6" fill="#e2e8f0"/>
  <ellipse cx="83" cy="85" rx="12" ry="6" fill="#e2e8f0"/>
  
  <!-- Flywheel (simple representation) -->
  <circle cx="64" cy="90" r="12" fill="#4a5568"/>
  <circle cx="64" cy="90" r="8" fill="#6b7280"/>
  
  <!-- Side rails -->
  <rect x="25" y="75" width="3" height="25" fill="#6b7280" rx="1"/>
  <rect x="100" y="75" width="3" height="25" fill="#6b7280" rx="1"/>
</svg>
