<svg width="128" height="128" xmlns="http://www.w3.org/2000/svg" viewBox="0 0 128 128">
  <!-- Base -->
  <rect x="16" y="110" width="96" height="8" fill="#2d3748" rx="4"/>
  
  <!-- Main frame -->
  <rect x="20" y="40" width="6" height="75" fill="#4a5568" rx="3"/>
  <rect x="102" y="40" width="6" height="75" fill="#4a5568" rx="3"/>
  <rect x="20" y="40" width="88" height="6" fill="#4a5568" rx="3"/>
  
  <!-- Knee pad -->
  <rect x="35" y="85" width="20" height="8" fill="#e2e8f0" rx="4"/>
  
  <!-- Leg kickback pad -->
  <rect x="55" y="75" width="15" height="8" fill="#e53e3e" rx="4"/>
  
  <!-- Handle grips -->
  <rect x="25" y="55" width="3" height="15" fill="#6b7280" rx="1"/>
  <circle cx="26" cy="52" r="2" fill="#e53e3e"/>
  <circle cx="26" cy="72" r="2" fill="#e53e3e"/>
  
  <!-- Weight stack -->
  <rect x="100" y="20" width="16" height="60" fill="#374151" rx="4"/>
  <rect x="102" y="25" width="12" height="6" fill="#6b7280" rx="1"/>
  <rect x="102" y="35" width="12" height="6" fill="#e53e3e" rx="1"/>
  <rect x="102" y="45" width="12" height="6" fill="#6b7280" rx="1"/>
  <rect x="102" y="55" width="12" height="6" fill="#6b7280" rx="1"/>
  <rect x="102" y="65" width="12" height="6" fill="#6b7280" rx="1"/>
  
  <!-- Cable -->
  <circle cx="95" cy="35" r="3" fill="#9ca3af"/>
  
  <!-- Pivot point -->
  <circle cx="50" cy="82" r="3" fill="#4a5568"/>
</svg>
