<svg width="60" height="45" xmlns="http://www.w3.org/2000/svg" viewBox="0 0 60 45">
  <!-- Machine base -->
  <rect x="5" y="35" width="50" height="8" fill="#2d3748" rx="2"/>
  
  <!-- Seat -->
  <rect x="18" y="20" width="12" height="17" fill="#4a5568" rx="2"/>
  <rect x="18" y="15" width="12" height="8" fill="#4a5568" rx="2"/>
  
  <!-- Hip adduction pads (inner position) -->
  <rect x="20" y="18" width="6" height="8" fill="#e53e3e" rx="2"/>
  <rect x="22" y="18" width="6" height="8" fill="#e53e3e" rx="2"/>
  
  <!-- Leg movement mechanism (inward motion) -->
  <circle cx="23" cy="22" r="3" fill="#2d3748"/>
  <circle cx="25" cy="22" r="3" fill="#2d3748"/>
  <rect x="20" y="20" width="8" height="4" fill="#718096"/>
  
  <!-- Outer leg guides -->
  <rect x="8" y="18" width="4" height="8" fill="#4a5568" rx="1"/>
  <rect x="38" y="18" width="4" height="8" fill="#4a5568" rx="1"/>
  
  <!-- Weights stack -->
  <rect x="48" y="8" width="8" height="25" fill="#2d3748" rx="1"/>
  <rect x="49" y="10" width="6" height="3" fill="#4a5568"/>
  <rect x="49" y="14" width="6" height="3" fill="#4a5568"/>
  <rect x="49" y="18" width="6" height="3" fill="#4a5568"/>
  <rect x="49" y="22" width="6" height="3" fill="#4a5568"/>
  <rect x="49" y="26" width="6" height="3" fill="#4a5568"/>
  
  <!-- Support frame -->
  <rect x="22" y="8" width="3" height="27" fill="#2d3748"/>
</svg>