<svg width="128" height="128" xmlns="http://www.w3.org/2000/svg" viewBox="0 0 128 128">
  <!-- Base -->
  <rect x="16" y="110" width="96" height="8" fill="#2d3748" rx="4"/>
  
  <!-- Main frame structure -->
  <rect x="20" y="35" width="6" height="80" fill="#4a5568" rx="3"/>
  <rect x="102" y="35" width="6" height="80" fill="#4a5568" rx="3"/>
  <rect x="20" y="35" width="88" height="6" fill="#4a5568" rx="3"/>
  
  <!-- Angled leg press platform -->
  <rect x="30" y="50" width="65" height="35" fill="#6b7280" rx="6" transform="rotate(-20 62.5 67.5)"/>
  
  <!-- Foot platform -->
  <rect x="40" y="45" width="45" height="15" fill="#e53e3e" rx="4" transform="rotate(-20 62.5 52.5)"/>
  
  <!-- Seat -->
  <rect x="30" y="85" width="30" height="20" fill="#e2e8f0" rx="6"/>
  
  <!-- Side handles -->
  <rect x="25" y="70" width="8" height="3" fill="#6b7280" rx="1"/>
  <rect x="95" y="70" width="8" height="3" fill="#6b7280" rx="1"/>
  <circle cx="22" cy="71" r="2" fill="#e53e3e"/>
  <circle cx="106" cy="71" r="2" fill="#e53e3e"/>
  
  <!-- Weight loading area -->
  <rect x="105" y="45" width="12" height="8" fill="#4a5568" rx="2"/>
  <rect x="105" y="60" width="12" height="8" fill="#4a5568" rx="2"/>
  
  <!-- Weight plates -->
  <rect x="112" y="40" width="6" height="18" fill="#374151" rx="2"/>
  <rect x="112" y="65" width="6" height="18" fill="#374151" rx="2"/>
  
  <!-- Guide rails -->
  <rect x="35" y="30" width="2" height="55" fill="#9ca3af"/>
  <rect x="90" y="30" width="2" height="55" fill="#9ca3af"/>
</svg>