<svg width="60" height="45" xmlns="http://www.w3.org/2000/svg" viewBox="0 0 60 45">
  <!-- Machine base/platform -->
  <rect x="5" y="30" width="45" height="13" fill="#2d3748" rx="2"/>
  
  <!-- Seat -->
  <rect x="35" y="18" width="12" height="12" fill="#4a5568" rx="2"/>
  <rect x="35" y="15" width="12" height="6" fill="#4a5568" rx="2"/>
  
  <!-- Leg press platform -->
  <rect x="8" y="25" width="22" height="8" fill="#718096" rx="1"/>
  
  <!-- Foot plate -->
  <rect x="6" y="22" width="26" height="6" fill="#e53e3e" rx="1"/>
  
  <!-- Support rails -->
  <rect x="10" y="15" width="2" height="15" fill="#2d3748"/>
  <rect x="26" y="15" width="2" height="15" fill="#2d3748"/>
  
  <!-- Weights stack -->
  <rect x="50" y="8" width="8" height="25" fill="#2d3748" rx="1"/>
  <rect x="51" y="10" width="6" height="3" fill="#4a5568"/>
  <rect x="51" y="14" width="6" height="3" fill="#4a5568"/>
  <rect x="51" y="18" width="6" height="3" fill="#4a5568"/>
  <rect x="51" y="22" width="6" height="3" fill="#4a5568"/>
  <rect x="51" y="26" width="6" height="3" fill="#4a5568"/>
</svg>