<svg width="128" height="128" xmlns="http://www.w3.org/2000/svg" viewBox="0 0 128 128">
  <!-- Base -->
  <rect x="16" y="110" width="96" height="8" fill="#2d3748" rx="4"/>
  
  <!-- Main frame -->
  <rect x="20" y="40" width="6" height="75" fill="#4a5568" rx="3"/>
  <rect x="102" y="40" width="6" height="75" fill="#4a5568" rx="3"/>
  <rect x="20" y="40" width="88" height="6" fill="#4a5568" rx="3"/>
  
  <!-- Bench/seat -->
  <rect x="30" y="75" width="35" height="15" fill="#e2e8f0" rx="6"/>
  
  <!-- Leg curl pad -->
  <rect x="40" y="85" width="25" height="8" fill="#e53e3e" rx="4"/>
  
  <!-- Pivot mechanism -->
  <circle cx="40" cy="80" r="3" fill="#4a5568"/>
  
  <!-- Leg roller -->
  <rect x="45" y="95" width="20" height="4" fill="#6b7280" rx="2"/>
  
  <!-- Weight stack -->
  <rect x="100" y="20" width="16" height="60" fill="#374151" rx="4"/>
  <rect x="102" y="25" width="12" height="6" fill="#6b7280" rx="1"/>
  <rect x="102" y="35" width="12" height="6" fill="#e53e3e" rx="1"/>
  <rect x="102" y="45" width="12" height="6" fill="#6b7280" rx="1"/>
  <rect x="102" y="55" width="12" height="6" fill="#6b7280" rx="1"/>
  <rect x="102" y="65" width="12" height="6" fill="#6b7280" rx="1"/>
  
  <!-- Cable -->
  <circle cx="95" cy="35" r="3" fill="#9ca3af"/>
  <rect x="93" y="35" width="8" height="1" fill="#d1d5db"/>
</svg>