<svg width="60" height="45" xmlns="http://www.w3.org/2000/svg" viewBox="0 0 60 45">
  <!-- Machine base -->
  <rect x="3" y="35" width="54" height="8" fill="#1a202c" rx="3"/>
  <rect x="5" y="32" width="50" height="4" fill="#2d3748" rx="2"/>
  
  <!-- Seat with enhanced detail -->
  <rect x="18" y="23" width="14" height="12" fill="#4a5568" rx="3"/>
  <rect x="19" y="24" width="12" height="10" fill="#e2e8f0" rx="2"/>
  <!-- Seat back -->
  <rect x="23" y="13" width="8" height="12" fill="#4a5568" rx="3"/>
  <rect x="24" y="14" width="6" height="10" fill="#e2e8f0" rx="2"/>
  
  <!-- Leg extension pad with ankle support -->
  <rect x="8" y="30" width="14" height="6" fill="#e53e3e" rx="3"/>
  <rect x="9" y="31" width="12" height="4" fill="#fc8181" rx="2"/>
  <!-- Ankle straps -->
  <rect x="10" y="29" width="2" height="2" fill="#718096"/>
  <rect x="18" y="29" width="2" height="2" fill="#718096"/>
  
  <!-- Extension mechanism with pivot -->
  <circle cx="16" cy="27" r="4" fill="#2d3748"/>
  <circle cx="16" cy="27" r="2" fill="#4a5568"/>
  <rect x="8" y="25" width="16" height="4" fill="#718096" rx="2"/>
  
  <!-- Support frame structure -->
  <rect x="15" y="10" width="4" height="25" fill="#2d3748" rx="1"/>
  <rect x="35" y="10" width="4" height="25" fill="#2d3748" rx="1"/>
  <rect x="15" y="10" width="24" height="4" fill="#2d3748" rx="1"/>
  
  <!-- Weight stack with enhanced detail -->
  <rect x="48" y="6" width="8" height="28" fill="#1a202c" rx="2"/>
  <rect x="49" y="8" width="6" height="3" fill="#4a5568" rx="0.5"/>
  <rect x="49" y="12" width="6" height="3" fill="#4a5568" rx="0.5"/>
  <rect x="49" y="16" width="6" height="3" fill="#e53e3e" rx="0.5"/>
  <rect x="49" y="20" width="6" height="3" fill="#4a5568" rx="0.5"/>
  <rect x="49" y="24" width="6" height="3" fill="#4a5568" rx="0.5"/>
  <rect x="49" y="28" width="6" height="3" fill="#4a5568" rx="0.5"/>
  
  <!-- Guide rod and cable system -->
  <rect x="51.5" y="6" width="1" height="28" fill="#718096"/>
  <rect x="44" y="18" width="1" height="12" fill="#e2e8f0"/>
  
  <!-- Pulley system -->
  <circle cx="42" cy="14" r="2" fill="#4a5568"/>
  <rect x="40" y="14" width="4" height="1" fill="#718096"/>
  
  <!-- Range of motion adjustments -->
  <rect x="12" y="20" width="3" height="2" fill="#e53e3e" rx="1"/>
</svg>