<svg width="128" height="128" xmlns="http://www.w3.org/2000/svg" viewBox="0 0 128 128">
  <!-- Machine base -->
  <rect x="8" y="110" width="112" height="12" fill="#1a202c" rx="6"/>
  <rect x="12" y="108" width="104" height="4" fill="#2d3748" rx="2"/>
  
  <!-- Seat with enhanced detail -->
  <rect x="40" y="70" width="32" height="28" fill="#4a5568" rx="6"/>
  <rect x="42" y="72" width="28" height="24" fill="#e2e8f0" rx="4"/>
  <rect x="44" y="74" width="24" height="20" fill="#f7fafc" rx="3"/>
  
  <!-- Seat back with lumbar support -->
  <rect x="50" y="35" width="20" height="40" fill="#4a5568" rx="6"/>
  <rect x="52" y="37" width="16" height="36" fill="#e2e8f0" rx="4"/>
  <rect x="54" y="39" width="12" height="32" fill="#f7fafc" rx="3"/>
  
  <!-- Lumbar support curve -->
  <rect x="48" y="55" width="24" height="8" fill="#e2e8f0" rx="3"/>
  
  <!-- Leg extension pad with ankle support -->
  <rect x="20" y="90" width="32" height="12" fill="#e53e3e" rx="4"/>
  <rect x="22" y="92" width="28" height="8" fill="#fc8181" rx="3"/>
  <rect x="24" y="94" width="24" height="4" fill="#feb2b2" rx="2"/>
  
  <!-- Ankle straps/supports -->
  <rect x="24" y="86" width="6" height="6" fill="#1a202c" rx="2"/>
  <rect x="25" y="87" width="4" height="4" fill="#718096" rx="1"/>
  <rect x="42" y="86" width="6" height="6" fill="#1a202c" rx="2"/>
  <rect x="43" y="87" width="4" height="4" fill="#718096" rx="1"/>
  
  <!-- Extension mechanism with detailed pivot -->
  <circle cx="36" cy="80" r="10" fill="#2d3748"/>
  <circle cx="36" cy="80" r="8" fill="#4a5568"/>
  <circle cx="36" cy="80" r="4" fill="#718096"/>
  
  <!-- Extension arm -->
  <rect x="20" y="76" width="32" height="8" fill="#4a5568" rx="3"/>
  <rect x="22" y="78" width="28" height="4" fill="#718096" rx="2"/>
  
  <!-- Support frame structure -->
  <rect x="32" y="25" width="12" height="87" fill="#2d3748" rx="4"/>
  <rect x="76" y="25" width="12" height="87" fill="#2d3748" rx="4"/>
  <rect x="32" y="25" width="56" height="12" fill="#2d3748" rx="4"/>
  
  <!-- Thigh support pad -->
  <rect x="44" y="80" width="28" height="8" fill="#e53e3e" rx="3"/>
  <rect x="46" y="82" width="24" height="4" fill="#fc8181" rx="2"/>
  
  <!-- Weight stack with individual plates -->
  <rect x="104" y="15" width="16" height="75" fill="#1a202c" rx="4"/>
  <rect x="106" y="18" width="12" height="8" fill="#4a5568" rx="1"/>
  <rect x="106" y="28" width="12" height="8" fill="#4a5568" rx="1"/>
  <rect x="106" y="38" width="12" height="8" fill="#e53e3e" rx="1"/>
  <rect x="106" y="48" width="12" height="8" fill="#4a5568" rx="1"/>
  <rect x="106" y="58" width="12" height="8" fill="#4a5568" rx="1"/>
  <rect x="106" y="68" width="12" height="8" fill="#4a5568" rx="1"/>
  <rect x="106" y="78" width="12" height="8" fill="#4a5568" rx="1"/>
  
  <!-- Weight stack guide rod -->
  <rect x="111.5" y="15" width="2" height="75" fill="#718096" rx="1"/>
  
  <!-- Pulley system -->
  <circle cx="94" cy="30" r="6" fill="#4a5568"/>
  <circle cx="94" cy="30" r="4" fill="#718096"/>
  <circle cx="94" cy="30" r="2" fill="#e2e8f0"/>
  
  <!-- Cable routing -->
  <rect x="88" y="30" width="12" height="2" fill="#e2e8f0"/>
  <rect x="80" y="30" width="2" height="50" fill="#e2e8f0"/>
  <rect x="36" y="30" width="2" height="50" fill="#e2e8f0"/>
  <rect x="36" y="30" width="46" height="2" fill="#e2e8f0"/>
  
  <!-- Range of motion adjustment stops -->
  <rect x="28" y="60" width="8" height="6" fill="#e53e3e" rx="2"/>
  <rect x="30" y="62" width="4" height="2" fill="#fc8181"/>
  <rect x="28" y="70" width="8" height="6" fill="#e53e3e" rx="2"/>
  <rect x="30" y="72" width="4" height="2" fill="#fc8181"/>
  
  <!-- Adjustment pins -->
  <circle cx="32" cy="63" r="1.5" fill="#fbbf24"/>
  <circle cx="32" cy="73" r="1.5" fill="#fbbf24"/>
  
  <!-- Safety pin -->
  <rect x="102" y="45" width="4" height="12" fill="#fbbf24" rx="1"/>
  <circle cx="104" cy="51" r="2" fill="#f59e0b"/>
  
  <!-- Seat adjustment mechanism -->
  <rect x="54" y="100" width="12" height="8" fill="#2d3748" rx="3"/>
  <circle cx="60" cy="104" r="3" fill="#fbbf24"/>
  
  <!-- Support legs -->
  <rect x="44" y="96" width="6" height="16" fill="#2d3748" rx="1"/>
  <rect x="66" y="96" width="6" height="16" fill="#2d3748" rx="1"/>
  <rect x="80" y="96" width="6" height="16" fill="#2d3748" rx="1"/>
  
  <!-- Side handles for stability -->
  <rect x="18" y="65" width="8" height="16" fill="#1a202c" rx="3"/>
  <rect x="20" y="67" width="4" height="12" fill="#718096" rx="2"/>
  <rect x="94" y="65" width="8" height="16" fill="#1a202c" rx="3"/>
  <rect x="96" y="67" width="4" height="12" fill="#718096" rx="2"/>
  
  <!-- Handle grip texture -->
  <rect x="21" y="69" width="2" height="1" fill="#4a5568"/>
  <rect x="21" y="71" width="2" height="1" fill="#4a5568"/>
  <rect x="21" y="73" width="2" height="1" fill="#4a5568"/>
  <rect x="97" y="69" width="2" height="1" fill="#4a5568"/>
  <rect x="97" y="71" width="2" height="1" fill="#4a5568"/>
  <rect x="97" y="73" width="2" height="1" fill="#4a5568"/>
</svg>