<svg width="128" height="128" xmlns="http://www.w3.org/2000/svg" viewBox="0 0 128 128">
  <!-- Machine base platform -->
  <rect x="8" y="90" width="112" height="32" fill="#1a202c" rx="6"/>
  <rect x="12" y="88" width="104" height="6" fill="#2d3748" rx="2"/>
  
  <!-- Inclined seat with detailed padding -->
  <rect x="75" y="45" width="32" height="28" fill="#4a5568" rx="6" transform="rotate(-15 91 59)"/>
  <rect x="77" y="47" width="28" height="24" fill="#e2e8f0" rx="4" transform="rotate(-15 91 59)"/>
  <rect x="79" y="49" width="24" height="20" fill="#f7fafc" rx="3" transform="rotate(-15 91 59)"/>
  
  <!-- Seat back with lumbar support -->
  <rect x="75" y="25" width="32" height="25" fill="#4a5568" rx="6" transform="rotate(-15 91 37.5)"/>
  <rect x="77" y="27" width="28" height="21" fill="#e2e8f0" rx="4" transform="rotate(-15 91 37.5)"/>
  <rect x="79" y="29" width="24" height="17" fill="#f7fafc" rx="3" transform="rotate(-15 91 37.5)"/>
  
  <!-- Leg press platform with realistic proportions -->
  <rect x="20" y="50" width="52" height="20" fill="#4a5568" rx="4" transform="rotate(-30 46 60)"/>
  <rect x="22" y="52" width="48" height="16" fill="#718096" rx="2" transform="rotate(-30 46 60)"/>
  
  <!-- Foot plate with grip pattern -->
  <rect x="16" y="45" width="60" height="12" fill="#e53e3e" rx="4" transform="rotate(-30 46 51)"/>
  <rect x="18" y="47" width="56" height="8" fill="#fc8181" rx="2" transform="rotate(-30 46 51)"/>
  
  <!-- Foot plate grip texture -->
  <rect x="20" y="48" width="4" height="6" fill="#e53e3e" transform="rotate(-30 22 51)"/>
  <rect x="26" y="48" width="4" height="6" fill="#e53e3e" transform="rotate(-30 28 51)"/>
  <rect x="32" y="48" width="4" height="6" fill="#e53e3e" transform="rotate(-30 34 51)"/>
  <rect x="38" y="48" width="4" height="6" fill="#e53e3e" transform="rotate(-30 40 51)"/>
  <rect x="44" y="48" width="4" height="6" fill="#e53e3e" transform="rotate(-30 46 51)"/>
  <rect x="50" y="48" width="4" height="6" fill="#e53e3e" transform="rotate(-30 52 51)"/>
  <rect x="56" y="48" width="4" height="6" fill="#e53e3e" transform="rotate(-30 58 51)"/>
  <rect x="62" y="48" width="4" height="6" fill="#e53e3e" transform="rotate(-30 64 51)"/>
  <rect x="68" y="48" width="4" height="6" fill="#e53e3e" transform="rotate(-30 70 51)"/>
  
  <!-- Support rails with detailed structure -->
  <rect x="24" y="25" width="8" height="55" fill="#2d3748" rx="3" transform="rotate(-30 28 52.5)"/>
  <rect x="56" y="25" width="8" height="55" fill="#2d3748" rx="3" transform="rotate(-30 60 52.5)"/>
  
  <!-- Linear bearing guides -->
  <rect x="26" y="30" width="4" height="45" fill="#718096" rx="1" transform="rotate(-30 28 52.5)"/>
  <rect x="58" y="30" width="4" height="45" fill="#718096" rx="1" transform="rotate(-30 60 52.5)"/>
  
  <!-- Linear bearing carriages -->
  <rect x="25" y="35" width="6" height="8" fill="#4a5568" rx="2" transform="rotate(-30 28 39)"/>
  <rect x="25" y="50" width="6" height="8" fill="#4a5568" rx="2" transform="rotate(-30 28 54)"/>
  <rect x="57" y="35" width="6" height="8" fill="#4a5568" rx="2" transform="rotate(-30 60 39)"/>
  <rect x="57" y="50" width="6" height="8" fill="#4a5568" rx="2" transform="rotate(-30 60 54)"/>
  
  <!-- Weight stack with individual plates -->
  <rect x="104" y="15" width="16" height="75" fill="#1a202c" rx="4"/>
  <rect x="106" y="18" width="12" height="8" fill="#4a5568" rx="1"/>
  <rect x="106" y="28" width="12" height="8" fill="#4a5568" rx="1"/>
  <rect x="106" y="38" width="12" height="8" fill="#e53e3e" rx="1"/>
  <rect x="106" y="48" width="12" height="8" fill="#4a5568" rx="1"/>
  <rect x="106" y="58" width="12" height="8" fill="#4a5568" rx="1"/>
  <rect x="106" y="68" width="12" height="8" fill="#4a5568" rx="1"/>
  <rect x="106" y="78" width="12" height="8" fill="#4a5568" rx="1"/>
  
  <!-- Weight stack guide rod -->
  <rect x="111.5" y="15" width="2" height="75" fill="#718096" rx="1"/>
  
  <!-- Pulley system -->
  <circle cx="94" cy="25" r="6" fill="#4a5568"/>
  <circle cx="94" cy="25" r="4" fill="#718096"/>
  <circle cx="94" cy="25" r="2" fill="#e2e8f0"/>
  
  <!-- Cable routing from weight stack to platform -->
  <rect x="88" y="25" width="12" height="2" fill="#e2e8f0"/>
  <rect x="80" y="25" width="2" height="40" fill="#e2e8f0" transform="rotate(-30 81 45)"/>
  
  <!-- Safety stops -->
  <rect x="20" y="70" width="12" height="6" fill="#e53e3e" rx="2" transform="rotate(-30 26 73)"/>
  <rect x="52" y="70" width="12" height="6" fill="#e53e3e" rx="2" transform="rotate(-30 58 73)"/>
  <circle cx="26" cy="73" r="2" fill="#fc8181"/>
  <circle cx="58" cy="73" r="2" fill="#fc8181"/>
  
  <!-- Safety pin -->
  <rect x="102" y="45" width="4" height="12" fill="#fbbf24" rx="1"/>
  <circle cx="104" cy="51" r="2" fill="#f59e0b"/>
  
  <!-- Main support frame -->
  <rect x="20" y="20" width="60" height="8" fill="#2d3748" rx="3" transform="rotate(-30 50 24)"/>
  
  <!-- Seat adjustment mechanism -->
  <rect x="85" y="75" width="12" height="8" fill="#2d3748" rx="3"/>
  <circle cx="91" cy="79" r="3" fill="#fbbf24"/>
  
  <!-- Support base legs -->
  <rect x="79" y="80" width="6" height="22" fill="#2d3748" rx="1"/>
  <rect x="97" y="80" width="6" height="22" fill="#2d3748" rx="1"/>
  
  <!-- Handle grips on sides of seat -->
  <rect x="72" y="50" width="8" height="16" fill="#1a202c" rx="3" transform="rotate(-15 76 58)"/>
  <rect x="73" y="52" width="6" height="12" fill="#718096" rx="2" transform="rotate(-15 76 58)"/>
  <rect x="107" y="50" width="8" height="16" fill="#1a202c" rx="3" transform="rotate(-15 111 58)"/>
  <rect x="108" y="52" width="6" height="12" fill="#718096" rx="2" transform="rotate(-15 111 58)"/>
</svg>