<svg width="60" height="45" xmlns="http://www.w3.org/2000/svg" viewBox="0 0 60 45">
  <!-- Machine base/platform -->
  <rect x="3" y="30" width="54" height="13" fill="#1a202c" rx="3"/>
  <rect x="5" y="27" width="50" height="4" fill="#2d3748" rx="2"/>
  
  <!-- Seat with enhanced detail -->
  <rect x="35" y="16" width="14" height="14" fill="#4a5568" rx="3"/>
  <rect x="36" y="17" width="12" height="12" fill="#e2e8f0" rx="2"/>
  <!-- Seat back -->
  <rect x="35" y="12" width="14" height="8" fill="#4a5568" rx="3"/>
  <rect x="36" y="13" width="12" height="6" fill="#e2e8f0" rx="2"/>
  
  <!-- Leg press platform with footplate detail -->
  <rect x="8" y="20" width="26" height="10" fill="#4a5568" rx="2"/>
  <rect x="9" y="21" width="24" height="8" fill="#718096" rx="1"/>
  
  <!-- Foot plate with grip pattern -->
  <rect x="6" y="18" width="30" height="6" fill="#e53e3e" rx="2"/>
  <rect x="8" y="19" width="2" height="4" fill="#fc8181"/>
  <rect x="12" y="19" width="2" height="4" fill="#fc8181"/>
  <rect x="16" y="19" width="2" height="4" fill="#fc8181"/>
  <rect x="20" y="19" width="2" height="4" fill="#fc8181"/>
  <rect x="24" y="19" width="2" height="4" fill="#fc8181"/>
  <rect x="28" y="19" width="2" height="4" fill="#fc8181"/>
  <rect x="32" y="19" width="2" height="4" fill="#fc8181"/>
  
  <!-- Support rails with detailed structure -->
  <rect x="10" y="12" width="3" height="18" fill="#2d3748" rx="1"/>
  <rect x="26" y="12" width="3" height="18" fill="#2d3748" rx="1"/>
  <rect x="10" y="12" width="19" height="3" fill="#2d3748" rx="1"/>
  
  <!-- Linear bearing guides -->
  <rect x="11" y="14" width="1" height="14" fill="#718096"/>
  <rect x="27" y="14" width="1" height="14" fill="#718096"/>
  
  <!-- Weight stack with enhanced detail -->
  <rect x="50" y="6" width="8" height="28" fill="#1a202c" rx="2"/>
  <rect x="51" y="8" width="6" height="3" fill="#4a5568" rx="0.5"/>
  <rect x="51" y="12" width="6" height="3" fill="#4a5568" rx="0.5"/>
  <rect x="51" y="16" width="6" height="3" fill="#e53e3e" rx="0.5"/>
  <rect x="51" y="20" width="6" height="3" fill="#4a5568" rx="0.5"/>
  <rect x="51" y="24" width="6" height="3" fill="#4a5568" rx="0.5"/>
  <rect x="51" y="28" width="6" height="3" fill="#4a5568" rx="0.5"/>
  
  <!-- Guide rod -->
  <rect x="53.5" y="6" width="1" height="28" fill="#718096"/>
  
  <!-- Cable system -->
  <rect x="47" y="20" width="1" height="8" fill="#e2e8f0"/>
  <circle cx="45" cy="15" r="2" fill="#4a5568"/>
  
  <!-- Safety stops -->
  <rect x="8" y="25" width="4" height="2" fill="#e53e3e" rx="1"/>
  <rect x="27" y="25" width="4" height="2" fill="#e53e3e" rx="1"/>
</svg>