<svg width="128" height="128" xmlns="http://www.w3.org/2000/svg" viewBox="0 0 128 128">
  <!-- Base -->
  <rect x="16" y="110" width="96" height="8" fill="#2d3748" rx="4"/>
  
  <!-- Main frame -->
  <rect x="20" y="40" width="6" height="75" fill="#4a5568" rx="3"/>
  <rect x="102" y="40" width="6" height="75" fill="#4a5568" rx="3"/>
  <rect x="20" y="40" width="88" height="6" fill="#4a5568" rx="3"/>
  
  <!-- Seat -->
  <rect x="30" y="80" width="28" height="20" fill="#e2e8f0" rx="6"/>
  
  <!-- Leverage row handles -->
  <rect x="55" y="65" width="25" height="3" fill="#6b7280" rx="1"/>
  <circle cx="82" cy="66" r="2" fill="#e53e3e"/>
  
  <!-- Chest pad -->
  <rect x="55" y="55" width="8" height="15" fill="#e2e8f0" rx="4"/>
  
  <!-- Weight loading area -->
  <rect x="105" y="45" width="12" height="8" fill="#4a5568" rx="2"/>
  <rect x="105" y="60" width="12" height="8" fill="#4a5568" rx="2"/>
  
  <!-- Weight plates -->
  <rect x="112" y="40" width="6" height="18" fill="#374151" rx="2"/>
  <rect x="112" y="65" width="6" height="18" fill="#374151" rx="2"/>
  
  <!-- Pivot point -->
  <circle cx="70" cy="66" r="3" fill="#4a5568"/>
</svg>
