<svg width="60" height="45" xmlns="http://www.w3.org/2000/svg" viewBox="0 0 60 45">
  <!-- Machine base -->
  <rect x="5" y="35" width="50" height="8" fill="#2d3748" rx="2"/>
  
  <!-- Seat -->
  <rect x="28" y="20" width="12" height="17" fill="#4a5568" rx="2"/>
  <rect x="28" y="15" width="12" height="8" fill="#4a5568" rx="2"/>
  
  <!-- Leverage arm -->
  <rect x="8" y="18" width="25" height="3" fill="#718096" rx="1"/>
  
  <!-- Row handles -->
  <rect x="8" y="15" width="3" height="8" fill="#718096" rx="1"/>
  <rect x="12" y="15" width="3" height="8" fill="#718096" rx="1"/>
  <circle cx="10" cy="17" r="2" fill="#e53e3e"/>
  <circle cx="14" cy="17" r="2" fill="#e53e3e"/>
  
  <!-- Pivot point -->
  <circle cx="20" cy="20" r="3" fill="#2d3748"/>
  
  <!-- Chest pad -->
  <rect x="42" y="15" width="6" height="12" fill="#e53e3e" rx="2"/>
  
  <!-- Weight loading area -->
  <rect x="48" y="18" width="8" height="15" fill="#2d3748" rx="1"/>
  <rect x="49" y="20" width="6" height="3" fill="#4a5568"/>
  <rect x="49" y="24" width="6" height="3" fill="#4a5568"/>
  <rect x="49" y="28" width="6" height="3" fill="#4a5568"/>
  
  <!-- Support frame -->
  <rect x="18" y="8" width="3" height="27" fill="#2d3748"/>
  <rect x="45" y="8" width="3" height="27" fill="#2d3748"/>
</svg>