<svg width="128" height="128" xmlns="http://www.w3.org/2000/svg" viewBox="0 0 128 128">
  <!-- Base platform -->
  <rect x="8" y="110" width="112" height="12" fill="#1a202c" rx="6"/>
  <rect x="12" y="108" width="104" height="4" fill="#2d3748" rx="2"/>
  
  <!-- Main support frame -->
  <rect x="56" y="20" width="16" height="92" fill="#2d3748" rx="4"/>
  <rect x="20" y="20" width="88" height="12" fill="#2d3748" rx="4"/>
  
  <!-- Seat with detailed cushioning -->
  <rect x="40" y="65" width="28" height="32" fill="#4a5568" rx="6"/>
  <rect x="42" y="67" width="24" height="28" fill="#e2e8f0" rx="4"/>
  <rect x="44" y="69" width="20" height="24" fill="#f7fafc" rx="3"/>
  
  <!-- Seat back with lumbar support -->
  <rect x="48" y="40" width="20" height="28" fill="#4a5568" rx="6"/>
  <rect x="50" y="42" width="16" height="24" fill="#e2e8f0" rx="4"/>
  <rect x="52" y="44" width="12" height="20" fill="#f7fafc" rx="3"/>
  
  <!-- Left pec fly arm with curved design -->
  <ellipse cx="28" cy="55" rx="12" ry="20" fill="#4a5568" transform="rotate(-15 28 55)"/>
  <ellipse cx="28" cy="55" rx="10" ry="16" fill="#e53e3e" transform="rotate(-15 28 55)"/>
  <ellipse cx="28" cy="55" rx="8" ry="12" fill="#fc8181" transform="rotate(-15 28 55)"/>
  
  <!-- Right pec fly arm with curved design -->
  <ellipse cx="100" cy="55" rx="12" ry="20" fill="#4a5568" transform="rotate(15 100 55)"/>
  <ellipse cx="100" cy="55" rx="10" ry="16" fill="#e53e3e" transform="rotate(15 100 55)"/>
  <ellipse cx="100" cy="55" rx="8" ry="12" fill="#fc8181" transform="rotate(15 100 55)"/>
  
  <!-- Arm supports and pivot mechanism -->
  <rect x="32" y="30" width="8" height="35" fill="#2d3748" rx="2"/>
  <rect x="88" y="30" width="8" height="35" fill="#2d3748" rx="2"/>
  <circle cx="36" cy="45" r="6" fill="#4a5568"/>
  <circle cx="92" cy="45" r="6" fill="#4a5568"/>
  <circle cx="36" cy="45" r="3" fill="#718096"/>
  <circle cx="92" cy="45" r="3" fill="#718096"/>
  
  <!-- Handles with grip detail -->
  <rect x="18" y="48" width="8" height="14" fill="#1a202c" rx="3"/>
  <rect x="102" y="48" width="8" height="14" fill="#1a202c" rx="3"/>
  <rect x="19" y="50" width="6" height="10" fill="#718096" rx="2"/>
  <rect x="103" y="50" width="6" height="10" fill="#718096" rx="2"/>
  
  <!-- Handle grip texture -->
  <rect x="20" y="51" width="4" height="1" fill="#4a5568"/>
  <rect x="20" y="53" width="4" height="1" fill="#4a5568"/>
  <rect x="20" y="55" width="4" height="1" fill="#4a5568"/>
  <rect x="20" y="57" width="4" height="1" fill="#4a5568"/>
  <rect x="104" y="51" width="4" height="1" fill="#4a5568"/>
  <rect x="104" y="53" width="4" height="1" fill="#4a5568"/>
  <rect x="104" y="55" width="4" height="1" fill="#4a5568"/>
  <rect x="104" y="57" width="4" height="1" fill="#4a5568"/>
  
  <!-- Weight stack with individual plates -->
  <rect x="110" y="15" width="16" height="75" fill="#1a202c" rx="4"/>
  <rect x="112" y="18" width="12" height="8" fill="#4a5568" rx="1"/>
  <rect x="112" y="28" width="12" height="8" fill="#4a5568" rx="1"/>
  <rect x="112" y="38" width="12" height="8" fill="#e53e3e" rx="1"/>
  <rect x="112" y="48" width="12" height="8" fill="#4a5568" rx="1"/>
  <rect x="112" y="58" width="12" height="8" fill="#4a5568" rx="1"/>
  <rect x="112" y="68" width="12" height="8" fill="#4a5568" rx="1"/>
  <rect x="112" y="78" width="12" height="8" fill="#4a5568" rx="1"/>
  
  <!-- Weight stack guide rod -->
  <rect x="117.5" y="15" width="2" height="75" fill="#718096" rx="1"/>
  
  <!-- Cable system with pulleys -->
  <circle cx="104" cy="25" r="6" fill="#4a5568"/>
  <circle cx="104" cy="25" r="4" fill="#718096"/>
  <circle cx="104" cy="25" r="2" fill="#e2e8f0"/>
  
  <!-- Cable routing -->
  <rect x="96" y="25" width="8" height="2" fill="#e2e8f0"/>
  <rect x="88" y="25" width="2" height="20" fill="#e2e8f0"/>
  <rect x="32" y="25" width="2" height="20" fill="#e2e8f0"/>
  <rect x="24" y="25" width="8" height="2" fill="#e2e8f0"/>
  
  <!-- Safety pin -->
  <rect x="108" y="45" width="4" height="12" fill="#fbbf24" rx="1"/>
  <circle cx="110" cy="51" r="2" fill="#f59e0b"/>
  
  <!-- Adjustment mechanism -->
  <rect x="60" y="95" width="8" height="8" fill="#2d3748" rx="2"/>
  <circle cx="64" cy="99" r="2" fill="#718096"/>
  
  <!-- Footrest -->
  <rect x="20" y="98" width="88" height="8" fill="#4a5568" rx="3"/>
  <rect x="22" y="100" width="84" height="4" fill="#718096" rx="2"/>
</svg>