<svg width="60" height="45" xmlns="http://www.w3.org/2000/svg" viewBox="0 0 60 45">
  <!-- Machine base -->
  <rect x="3" y="35" width="54" height="8" fill="#1a202c" rx="3"/>
  <rect x="5" y="32" width="50" height="4" fill="#2d3748" rx="2"/>
  
  <!-- Seat with enhanced detail -->
  <rect x="18" y="20" width="14" height="15" fill="#4a5568" rx="3"/>
  <rect x="19" y="21" width="12" height="13" fill="#e2e8f0" rx="2"/>
  <!-- Seat back -->
  <rect x="22" y="13" width="8" height="10" fill="#4a5568" rx="3"/>
  <rect x="23" y="14" width="6" height="8" fill="#e2e8f0" rx="2"/>
  
  <!-- Pec fly arm pads with curved design -->
  <ellipse cx="12" cy="18" rx="5" ry="8" fill="#e53e3e"/>
  <ellipse cx="35" cy="18" rx="5" ry="8" fill="#e53e3e"/>
  <ellipse cx="12" cy="18" rx="3" ry="6" fill="#fc8181"/>
  <ellipse cx="35" cy="18" rx="3" ry="6" fill="#fc8181"/>
  
  <!-- Handles with grips -->
  <rect x="8" y="16" width="3" height="6" fill="#718096" rx="1"/>
  <rect x="36" y="16" width="3" height="6" fill="#718096" rx="1"/>
  <circle cx="6" cy="19" r="1.5" fill="#e53e3e"/>
  <circle cx="40" cy="19" r="1.5" fill="#e53e3e"/>
  
  <!-- Fly mechanism with pivot -->
  <rect x="15" y="10" width="3" height="10" fill="#2d3748" rx="1"/>
  <rect x="29" y="10" width="3" height="10" fill="#2d3748" rx="1"/>
  <rect x="18" y="12" width="11" height="3" fill="#2d3748" rx="1"/>
  <circle cx="23.5" cy="13.5" r="2" fill="#4a5568"/>
  
  <!-- Support frame structure -->
  <rect x="22" y="6" width="4" height="16" fill="#2d3748" rx="1"/>
  <rect x="15" y="6" width="17" height="4" fill="#2d3748" rx="1"/>
  
  <!-- Weight stack with enhanced detail -->
  <rect x="48" y="6" width="8" height="28" fill="#1a202c" rx="2"/>
  <rect x="49" y="8" width="6" height="3" fill="#4a5568" rx="0.5"/>
  <rect x="49" y="12" width="6" height="3" fill="#4a5568" rx="0.5"/>
  <rect x="49" y="16" width="6" height="3" fill="#e53e3e" rx="0.5"/>
  <rect x="49" y="20" width="6" height="3" fill="#4a5568" rx="0.5"/>
  <rect x="49" y="24" width="6" height="3" fill="#4a5568" rx="0.5"/>
  <rect x="49" y="28" width="6" height="3" fill="#4a5568" rx="0.5"/>
  
  <!-- Guide rod -->
  <rect x="51.5" y="6" width="1" height="28" fill="#718096"/>
  
  <!-- Cable system -->
  <rect x="44" y="12" width="1" height="10" fill="#e2e8f0"/>
  <circle cx="42" cy="10" r="2" fill="#4a5568"/>
</svg>