<svg width="128" height="128" xmlns="http://www.w3.org/2000/svg" viewBox="0 0 128 128">
  <!-- Base -->
  <rect x="16" y="110" width="96" height="8" fill="#2d3748" rx="4"/>
  
  <!-- Main frame -->
  <rect x="20" y="40" width="6" height="75" fill="#4a5568" rx="3"/>
  <rect x="102" y="40" width="6" height="75" fill="#4a5568" rx="3"/>
  <rect x="20" y="40" width="88" height="6" fill="#4a5568" rx="3"/>
  
  <!-- Seat -->
  <rect x="30" y="80" width="28" height="20" fill="#e2e8f0" rx="6"/>
  
  <!-- Chest pad (for rear delt positioning) -->
  <rect x="30" y="50" width="28" height="32" fill="#e2e8f0" rx="6"/>
  
  <!-- Rear delt fly arms -->
  <rect x="55" y="58" width="18" height="3" fill="#6b7280" rx="1"/>
  <rect x="55" y="70" width="18" height="3" fill="#6b7280" rx="1"/>
  
  <!-- Handles -->
  <circle cx="75" cy="59" r="2" fill="#e53e3e"/>
  <circle cx="75" cy="71" r="2" fill="#e53e3e"/>
  
  <!-- Weight stack -->
  <rect x="100" y="20" width="16" height="60" fill="#374151" rx="4"/>
  <rect x="102" y="25" width="12" height="6" fill="#6b7280" rx="1"/>
  <rect x="102" y="35" width="12" height="6" fill="#e53e3e" rx="1"/>
  <rect x="102" y="45" width="12" height="6" fill="#6b7280" rx="1"/>
  <rect x="102" y="55" width="12" height="6" fill="#6b7280" rx="1"/>
  <rect x="102" y="65" width="12" height="6" fill="#6b7280" rx="1"/>
  
  <!-- Cable -->
  <circle cx="95" cy="35" r="3" fill="#9ca3af"/>
</svg>
