<svg width="60" height="45" xmlns="http://www.w3.org/2000/svg" viewBox="0 0 60 45">
  <!-- Machine base -->
  <rect x="5" y="35" width="50" height="8" fill="#2d3748" rx="2"/>
  
  <!-- Seat -->
  <rect x="18" y="22" width="12" height="15" fill="#4a5568" rx="2"/>
  <rect x="22" y="15" width="8" height="10" fill="#4a5568" rx="2"/>
  
  <!-- Rear delt fly handles (facing away) -->
  <circle cx="8" cy="18" r="2" fill="#718096"/>
  <circle cx="42" cy="18" r="2" fill="#718096"/>
  <rect x="6" y="15" width="4" height="6" fill="#e53e3e" rx="1"/>
  <rect x="40" y="15" width="4" height="6" fill="#e53e3e" rx="1"/>
  
  <!-- Fly mechanism -->
  <rect x="10" y="12" width="3" height="8" fill="#2d3748"/>
  <rect x="37" y="12" width="3" height="8" fill="#2d3748"/>
  <rect x="13" y="14" width="24" height="2" fill="#2d3748"/>
  
  <!-- Chest pad -->
  <rect x="32" y="15" width="6" height="12" fill="#e53e3e" rx="2"/>
  
  <!-- Support frame -->
  <rect x="22" y="8" width="3" height="14" fill="#2d3748"/>
  
  <!-- Weights stack -->
  <rect x="48" y="8" width="8" height="25" fill="#2d3748" rx="1"/>
  <rect x="49" y="10" width="6" height="3" fill="#4a5568"/>
  <rect x="49" y="14" width="6" height="3" fill="#4a5568"/>
  <rect x="49" y="18" width="6" height="3" fill="#4a5568"/>
  <rect x="49" y="22" width="6" height="3" fill="#4a5568"/>
  <rect x="49" y="26" width="6" height="3" fill="#4a5568"/>
</svg>