<svg width="128" height="128" xmlns="http://www.w3.org/2000/svg" viewBox="0 0 128 128">
  <!-- Exercise mat/base -->
  <rect x="16" y="110" width="96" height="8" fill="#2d3748" rx="4"/>
  
  <!-- Exercise mat -->
  <rect x="25" y="95" width="78" height="6" fill="#e53e3e" rx="3"/>
  
  <!-- Person sitting for Russian twists -->
  <!-- Head -->
  <circle cx="64" cy="50" r="6" fill="#4a5568"/>
  
  <!-- Torso -->
  <rect x="58" y="56" width="12" height="20" fill="#4a5568" rx="6"/>
  
  <!-- Arms holding weight/medicine ball -->
  <rect x="50" y="62" width="8" height="3" fill="#4a5568" rx="1"/>
  <rect x="70" y="62" width="8" height="3" fill="#4a5568" rx="1"/>
  
  <!-- Medicine ball/weight -->
  <circle cx="64" cy="63" r="5" fill="#374151"/>
  <circle cx="64" cy="63" r="3" fill="#e53e3e"/>
  
  <!-- Legs bent -->
  <rect x="54" y="76" width="5" height="12" fill="#4a5568" rx="2"/>
  <rect x="69" y="76" width="5" height="12" fill="#4a5568" rx="2"/>
  
  <!-- Feet -->
  <rect x="52" y="88" width="9" height="4" fill="#6b7280" rx="2"/>
  <rect x="67" y="88" width="9" height="4" fill="#6b7280" rx="2"/>
  
  <!-- Rotation arrows showing twisting motion -->
  <path d="M 45 63 Q 40 58 45 53" stroke="#e53e3e" stroke-width="2" fill="none" marker-end="url(#arrowhead)"/>
  <path d="M 83 63 Q 88 58 83 53" stroke="#e53e3e" stroke-width="2" fill="none" marker-end="url(#arrowhead)"/>
  
  <!-- Core engagement lines -->
  <rect x="60" y="65" width="8" height="2" fill="#e53e3e" rx="1" opacity="0.7"/>
  <rect x="61" y="68" width="6" height="2" fill="#e53e3e" rx="1" opacity="0.7"/>
  
  <defs>
    <marker id="arrowhead" markerWidth="10" markerHeight="7" 
     refX="9" refY="3.5" orient="auto">
      <polygon points="0 0, 10 3.5, 0 7" fill="#e53e3e" />
    </marker>
  </defs>
</svg>