<svg width="60" height="45" xmlns="http://www.w3.org/2000/svg" viewBox="0 0 60 45">
  <!-- Machine base -->
  <rect x="3" y="35" width="54" height="8" fill="#1a202c" rx="3"/>
  <rect x="5" y="32" width="50" height="4" fill="#2d3748" rx="2"/>
  
  <!-- Seat with enhanced detail -->
  <rect x="18" y="18" width="14" height="17" fill="#4a5568" rx="3"/>
  <rect x="19" y="19" width="12" height="15" fill="#e2e8f0" rx="2"/>
  <!-- Seat back -->
  <rect x="22" y="10" width="8" height="10" fill="#4a5568" rx="3"/>
  <rect x="23" y="11" width="6" height="8" fill="#e2e8f0" rx="2"/>
  
  <!-- Row handles with detailed grips -->
  <rect x="6" y="17" width="10" height="3" fill="#4a5568" rx="1"/>
  <circle cx="4" cy="18.5" r="2" fill="#e53e3e"/>
  <circle cx="18" cy="18.5" r="2" fill="#e53e3e"/>
  
  <!-- Cable mechanism with pulley -->
  <rect x="16" y="15" width="1" height="12" fill="#e2e8f0"/>
  <circle cx="18" cy="18" r="2" fill="#4a5568"/>
  
  <!-- Chest pad for support -->
  <rect x="32" y="13" width="8" height="14" fill="#e53e3e" rx="3"/>
  <rect x="33" y="14" width="6" height="12" fill="#fc8181" rx="2"/>
  
  <!-- Support frame structure -->
  <rect x="40" y="6" width="4" height="29" fill="#2d3748" rx="1"/>
  <rect x="6" y="13" width="38" height="4" fill="#2d3748" rx="1"/>
  
  <!-- Weight stack with enhanced detail -->
  <rect x="48" y="6" width="8" height="28" fill="#1a202c" rx="2"/>
  <rect x="49" y="8" width="6" height="3" fill="#4a5568" rx="0.5"/>
  <rect x="49" y="12" width="6" height="3" fill="#4a5568" rx="0.5"/>
  <rect x="49" y="16" width="6" height="3" fill="#e53e3e" rx="0.5"/>
  <rect x="49" y="20" width="6" height="3" fill="#4a5568" rx="0.5"/>
  <rect x="49" y="24" width="6" height="3" fill="#4a5568" rx="0.5"/>
  <rect x="49" y="28" width="6" height="3" fill="#4a5568" rx="0.5"/>
  
  <!-- Guide rod -->
  <rect x="51.5" y="6" width="1" height="28" fill="#718096"/>
  
  <!-- Pulley system -->
  <circle cx="42" cy="10" r="2" fill="#4a5568"/>
  <rect x="40" y="10" width="4" height="1" fill="#718096"/>
</svg>