<svg width="60" height="45" xmlns="http://www.w3.org/2000/svg" viewBox="0 0 60 45">
  <!-- Machine base -->
  <rect x="5" y="35" width="50" height="8" fill="#2d3748" rx="2"/>
  
  <!-- Seat -->
  <rect x="20" y="20" width="12" height="17" fill="#4a5568" rx="2"/>
  <rect x="25" y="12" width="8" height="10" fill="#4a5568" rx="2"/>
  
  <!-- Leg curl pad (seated position) -->
  <rect x="15" y="32" width="10" height="6" fill="#e53e3e" rx="2"/>
  
  <!-- Seated leg curl mechanism -->
  <rect x="12" y="28" width="16" height="4" fill="#718096" rx="1"/>
  <circle cx="20" cy="30" r="3" fill="#2d3748"/>
  
  <!-- Back support -->
  <rect x="32" y="12" width="6" height="15" fill="#4a5568" rx="2"/>
  
  <!-- Weights stack -->
  <rect x="48" y="8" width="8" height="25" fill="#2d3748" rx="1"/>
  <rect x="49" y="10" width="6" height="3" fill="#4a5568"/>
  <rect x="49" y="14" width="6" height="3" fill="#4a5568"/>
  <rect x="49" y="18" width="6" height="3" fill="#4a5568"/>
  <rect x="49" y="22" width="6" height="3" fill="#4a5568"/>
  <rect x="49" y="26" width="6" height="3" fill="#4a5568"/>
  
  <!-- Support frame -->
  <rect x="15" y="8" width="3" height="27" fill="#2d3748"/>
  <rect x="40" y="8" width="3" height="27" fill="#2d3748"/>
</svg>