<svg width="128" height="128" xmlns="http://www.w3.org/2000/svg" viewBox="0 0 128 128">
  <!-- Base platform -->
  <rect x="8" y="110" width="112" height="12" fill="#1a202c" rx="6"/>
  <rect x="12" y="108" width="104" height="4" fill="#2d3748" rx="2"/>
  
  <!-- Seat with detailed cushioning -->
  <rect x="40" y="55" width="32" height="35" fill="#4a5568" rx="6"/>
  <rect x="42" y="57" width="28" height="31" fill="#e2e8f0" rx="4"/>
  <rect x="44" y="59" width="24" height="27" fill="#f7fafc" rx="3"/>
  
  <!-- Seat back with lumbar support -->
  <rect x="48" y="30" width="20" height="28" fill="#4a5568" rx="6"/>
  <rect x="50" y="32" width="16" height="24" fill="#e2e8f0" rx="4"/>
  <rect x="52" y="34" width="12" height="20" fill="#f7fafc" rx="3"/>
  
  <!-- Main support frame -->
  <rect x="72" y="20" width="12" height="92" fill="#2d3748" rx="4"/>
  <rect x="16" y="40" width="68" height="8" fill="#2d3748" rx="3"/>
  
  <!-- Row handles with detailed grips -->
  <rect x="12" y="50" width="24" height="8" fill="#1a202c" rx="3"/>
  <rect x="13" y="52" width="22" height="4" fill="#718096" rx="2"/>
  
  <!-- Handle grips -->
  <circle cx="8" cy="54" r="4" fill="#e53e3e"/>
  <circle cx="8" cy="54" r="2" fill="#fc8181"/>
  <circle cx="40" cy="54" r="4" fill="#e53e3e"/>
  <circle cx="40" cy="54" r="2" fill="#fc8181"/>
  
  <!-- Handle grip texture -->
  <rect x="14" y="53" width="20" height="1" fill="#4a5568"/>
  <rect x="14" y="55" width="20" height="1" fill="#4a5568"/>
  
  <!-- Cable system with realistic routing -->
  <rect x="36" y="44" width="2" height="14" fill="#e2e8f0"/>
  <circle cx="38" cy="50" r="4" fill="#4a5568"/>
  <circle cx="38" cy="50" r="2" fill="#718096"/>
  
  <!-- Chest pad for support -->
  <rect x="72" y="40" width="16" height="30" fill="#e53e3e" rx="6"/>
  <rect x="74" y="42" width="12" height="26" fill="#fc8181" rx="4"/>
  <rect x="76" y="44" width="8" height="22" fill="#feb2b2" rx="3"/>
  
  <!-- Chest pad adjustment mechanism -->
  <rect x="78" y="72" width="8" height="6" fill="#2d3748" rx="2"/>
  <circle cx="82" cy="75" r="2" fill="#718096"/>
  
  <!-- Weight stack with individual plates -->
  <rect x="104" y="15" width="16" height="75" fill="#1a202c" rx="4"/>
  <rect x="106" y="18" width="12" height="8" fill="#4a5568" rx="1"/>
  <rect x="106" y="28" width="12" height="8" fill="#4a5568" rx="1"/>
  <rect x="106" y="38" width="12" height="8" fill="#e53e3e" rx="1"/>
  <rect x="106" y="48" width="12" height="8" fill="#4a5568" rx="1"/>
  <rect x="106" y="58" width="12" height="8" fill="#4a5568" rx="1"/>
  <rect x="106" y="68" width="12" height="8" fill="#4a5568" rx="1"/>
  <rect x="106" y="78" width="12" height="8" fill="#4a5568" rx="1"/>
  
  <!-- Weight stack guide rod -->
  <rect x="111.5" y="15" width="2" height="75" fill="#718096" rx="1"/>
  
  <!-- Pulley system at top -->
  <circle cx="94" cy="25" r="6" fill="#4a5568"/>
  <circle cx="94" cy="25" r="4" fill="#718096"/>
  <circle cx="94" cy="25" r="2" fill="#e2e8f0"/>
  
  <!-- Cable routing from weight stack to handles -->
  <rect x="88" y="25" width="12" height="2" fill="#e2e8f0"/>
  <rect x="76" y="25" width="2" height="20" fill="#e2e8f0"/>
  <rect x="38" y="25" width="40" height="2" fill="#e2e8f0"/>
  <rect x="36" y="25" width="2" height="25" fill="#e2e8f0"/>
  
  <!-- Footrest with non-slip surface -->
  <rect x="92" y="95" width="24" height="8" fill="#4a5568" rx="3"/>
  <rect x="94" y="97" width="20" height="4" fill="#718096" rx="2"/>
  <rect x="95" y="98" width="18" height="1" fill="#4a5568"/>
  <rect x="95" y="100" width="18" height="1" fill="#4a5568"/>
  
  <!-- Seat adjustment lever -->
  <rect x="60" y="88" width="8" height="6" fill="#2d3748" rx="2"/>
  <circle cx="64" cy="91" r="2" fill="#fbbf24"/>
  
  <!-- Safety pin -->
  <rect x="102" y="45" width="4" height="12" fill="#fbbf24" rx="1"/>
  <circle cx="104" cy="51" r="2" fill="#f59e0b"/>
  
  <!-- Support legs -->
  <rect x="44" y="88" width="6" height="24" fill="#2d3748" rx="1"/>
  <rect x="62" y="88" width="6" height="24" fill="#2d3748" rx="1"/>
  <rect x="76" y="68" width="6" height="44" fill="#2d3748" rx="1"/>
</svg>