<svg width="60" height="45" xmlns="http://www.w3.org/2000/svg" viewBox="0 0 60 45">
  <!-- Machine base -->
  <rect x="5" y="35" width="50" height="8" fill="#2d3748" rx="2"/>
  
  <!-- Seat -->
  <rect x="18" y="20" width="12" height="17" fill="#4a5568" rx="2"/>
  <rect x="22" y="12" width="8" height="10" fill="#4a5568" rx="2"/>
  
  <!-- Row handles -->
  <rect x="8" y="18" width="8" height="3" fill="#718096" rx="1"/>
  <circle cx="10" cy="20" r="2" fill="#718096"/>
  <circle cx="14" cy="20" r="2" fill="#718096"/>
  
  <!-- Cable system -->
  <rect x="6" y="15" width="2" height="12" fill="#2d3748"/>
  <rect x="6" y="15" width="15" height="2" fill="#2d3748"/>
  
  <!-- Chest pad -->
  <rect x="32" y="15" width="6" height="12" fill="#e53e3e" rx="2"/>
  
  <!-- Weights stack -->
  <rect x="48" y="8" width="8" height="25" fill="#2d3748" rx="1"/>
  <rect x="49" y="10" width="6" height="3" fill="#4a5568"/>
  <rect x="49" y="14" width="6" height="3" fill="#4a5568"/>
  <rect x="49" y="18" width="6" height="3" fill="#4a5568"/>
  <rect x="49" y="22" width="6" height="3" fill="#4a5568"/>
  <rect x="49" y="26" width="6" height="3" fill="#4a5568"/>
  
  <!-- Support frame -->
  <rect x="40" y="8" width="3" height="27" fill="#2d3748"/>
</svg>