<svg width="128" height="128" xmlns="http://www.w3.org/2000/svg" viewBox="0 0 128 128">
  <!-- Base -->
  <rect x="16" y="110" width="96" height="8" fill="#2d3748" rx="4"/>
  
  <!-- Main frame -->
  <rect x="20" y="35" width="6" height="80" fill="#4a5568" rx="3"/>
  <rect x="102" y="35" width="6" height="80" fill="#4a5568" rx="3"/>
  <rect x="20" y="35" width="88" height="6" fill="#4a5568" rx="3"/>
  
  <!-- Seat -->
  <rect x="30" y="85" width="28" height="20" fill="#e2e8f0" rx="6"/>
  
  <!-- Back support -->
  <rect x="30" y="55" width="28" height="32" fill="#e2e8f0" rx="6"/>
  
  <!-- Arm press handles -->
  <rect x="55" y="65" width="20" height="3" fill="#6b7280" rx="1"/>
  <circle cx="75" cy="66" r="2" fill="#e53e3e"/>
  
  <!-- Shoulder level handles -->
  <rect x="55" y="55" width="15" height="3" fill="#6b7280" rx="1"/>
  <circle cx="72" cy="56" r="2" fill="#e53e3e"/>
  
  <!-- Weight stack -->
  <rect x="100" y="15" width="16" height="65" fill="#374151" rx="4"/>
  <rect x="102" y="20" width="12" height="6" fill="#6b7280" rx="1"/>
  <rect x="102" y="30" width="12" height="6" fill="#e53e3e" rx="1"/>
  <rect x="102" y="40" width="12" height="6" fill="#6b7280" rx="1"/>
  <rect x="102" y="50" width="12" height="6" fill="#6b7280" rx="1"/>
  <rect x="102" y="60" width="12" height="6" fill="#6b7280" rx="1"/>
  <rect x="102" y="70" width="12" height="6" fill="#6b7280" rx="1"/>
  
  <!-- Cable/pulley system -->
  <circle cx="95" cy="25" r="3" fill="#9ca3af"/>
  <rect x="93" y="25" width="10" height="1" fill="#d1d5db"/>
</svg>