<svg width="128" height="128" xmlns="http://www.w3.org/2000/svg" viewBox="0 0 128 128">
  <!-- Base platform -->
  <rect x="8" y="110" width="112" height="12" fill="#1a202c" rx="6"/>
  <rect x="12" y="108" width="104" height="4" fill="#2d3748" rx="2"/>
  
  <!-- Seat with detailed padding -->
  <rect x="32" y="60" width="32" height="32" fill="#4a5568" rx="6"/>
  <rect x="34" y="62" width="28" height="28" fill="#e2e8f0" rx="4"/>
  <rect x="36" y="64" width="24" height="24" fill="#f7fafc" rx="3"/>
  
  <!-- Seat back with contoured design -->
  <rect x="32" y="30" width="32" height="35" fill="#4a5568" rx="6"/>
  <rect x="34" y="32" width="28" height="31" fill="#e2e8f0" rx="4"/>
  <rect x="36" y="34" width="24" height="27" fill="#f7fafc" rx="3"/>
  
  <!-- Lumbar support detail -->
  <rect x="40" y="45" width="16" height="8" fill="#e2e8f0" rx="3"/>
  
  <!-- Main vertical support -->
  <rect x="44" y="8" width="12" height="84" fill="#2d3748" rx="4"/>
  
  <!-- Shoulder press pivot mechanism -->
  <circle cx="50" cy="25" r="8" fill="#2d3748"/>
  <circle cx="50" cy="25" r="6" fill="#4a5568"/>
  <circle cx="50" cy="25" r="3" fill="#718096"/>
  
  <!-- Left shoulder press arm -->
  <rect x="20" y="20" width="28" height="8" fill="#4a5568" rx="3"/>
  <circle cx="18" cy="24" r="6" fill="#2d3748"/>
  <circle cx="18" cy="24" r="3" fill="#718096"/>
  
  <!-- Right shoulder press arm -->
  <rect x="52" y="35" width="28" height="8" fill="#4a5568" rx="3"/>
  <circle cx="82" cy="39" r="6" fill="#2d3748"/>
  <circle cx="82" cy="39" r="3" fill="#718096"/>
  
  <!-- Shoulder press handles with ergonomic grips -->
  <rect x="8" y="18" width="16" height="12" fill="#1a202c" rx="4"/>
  <rect x="10" y="20" width="12" height="8" fill="#718096" rx="3"/>
  <rect x="84" y="33" width="16" height="12" fill="#1a202c" rx="4"/>
  <rect x="86" y="35" width="12" height="8" fill="#718096" rx="3"/>
  
  <!-- Handle grip texture -->
  <rect x="11" y="22" width="10" height="1" fill="#4a5568"/>
  <rect x="11" y="24" width="10" height="1" fill="#4a5568"/>
  <rect x="11" y="26" width="10" height="1" fill="#4a5568"/>
  <rect x="87" y="37" width="10" height="1" fill="#4a5568"/>
  <rect x="87" y="39" width="10" height="1" fill="#4a5568"/>
  <rect x="87" y="41" width="10" height="1" fill="#4a5568"/>
  
  <!-- Shoulder support pads -->
  <ellipse cx="24" cy="45" rx="8" ry="6" fill="#e53e3e" transform="rotate(-15 24 45)"/>
  <ellipse cx="24" cy="45" rx="6" ry="4" fill="#fc8181" transform="rotate(-15 24 45)"/>
  <ellipse cx="76" cy="45" rx="8" ry="6" fill="#e53e3e" transform="rotate(15 76 45)"/>
  <ellipse cx="76" cy="45" rx="6" ry="4" fill="#fc8181" transform="rotate(15 76 45)"/>
  
  <!-- Weight stack with individual plates -->
  <rect x="104" y="15" width="16" height="75" fill="#1a202c" rx="4"/>
  <rect x="106" y="18" width="12" height="8" fill="#4a5568" rx="1"/>
  <rect x="106" y="28" width="12" height="8" fill="#4a5568" rx="1"/>
  <rect x="106" y="38" width="12" height="8" fill="#e53e3e" rx="1"/>
  <rect x="106" y="48" width="12" height="8" fill="#4a5568" rx="1"/>
  <rect x="106" y="58" width="12" height="8" fill="#4a5568" rx="1"/>
  <rect x="106" y="68" width="12" height="8" fill="#4a5568" rx="1"/>
  <rect x="106" y="78" width="12" height="8" fill="#4a5568" rx="1"/>
  
  <!-- Weight stack guide rod -->
  <rect x="111.5" y="15" width="2" height="75" fill="#718096" rx="1"/>
  
  <!-- Pulley system at top -->
  <circle cx="94" cy="20" r="6" fill="#4a5568"/>
  <circle cx="94" cy="20" r="4" fill="#718096"/>
  <circle cx="94" cy="20" r="2" fill="#e2e8f0"/>
  
  <!-- Cable routing system -->
  <rect x="88" y="20" width="12" height="2" fill="#e2e8f0"/>
  <rect x="82" y="20" width="2" height="19" fill="#e2e8f0"/>
  <rect x="18" y="20" width="2" height="4" fill="#e2e8f0"/>
  <rect x="18" y="20" width="66" height="2" fill="#e2e8f0"/>
  
  <!-- Safety pin -->
  <rect x="102" y="45" width="4" height="12" fill="#fbbf24" rx="1"/>
  <circle cx="104" cy="51" r="2" fill="#f59e0b"/>
  
  <!-- Support frame structure -->
  <rect x="20" y="8" width="68" height="8" fill="#2d3748" rx="3"/>
  
  <!-- Seat adjustment mechanism -->
  <rect x="42" y="94" width="12" height="8" fill="#2d3748" rx="3"/>
  <circle cx="48" cy="98" r="3" fill="#fbbf24"/>
  
  <!-- Support legs -->
  <rect x="36" y="88" width="6" height="24" fill="#2d3748" rx="1"/>
  <rect x="58" y="88" width="6" height="24" fill="#2d3748" rx="1"/>
  
  <!-- Footrest -->
  <rect x="20" y="98" width="68" height="8" fill="#4a5568" rx="3"/>
  <rect x="22" y="100" width="64" height="4" fill="#718096" rx="2"/>
</svg>