<svg width="128" height="128" xmlns="http://www.w3.org/2000/svg" viewBox="0 0 128 128">
  <!-- Base -->
  <rect x="16" y="110" width="96" height="8" fill="#2d3748" rx="4"/>
  
  <!-- Main upright -->
  <rect x="20" y="20" width="6" height="95" fill="#4a5568" rx="3"/>
  
  <!-- Cross beam -->
  <rect x="20" y="50" width="88" height="6" fill="#4a5568" rx="3"/>
  
  <!-- Smith machine rails -->
  <rect x="30" y="25" width="2" height="70" fill="#6b7280"/>
  <rect x="96" y="25" width="2" height="70" fill="#6b7280"/>
  
  <!-- Barbell -->
  <rect x="25" y="60" width="78" height="4" fill="#374151" rx="2"/>
  <circle cx="25" cy="62" r="3" fill="#4a5568"/>
  <circle cx="103" cy="62" r="3" fill="#4a5568"/>
  
  <!-- Safety catches -->
  <rect x="28" y="80" width="8" height="3" fill="#e53e3e" rx="1"/>
  <rect x="92" y="80" width="8" height="3" fill="#e53e3e" rx="1"/>
  
  <!-- Weight plates on bar -->
  <rect x="18" y="56" width="5" height="12" fill="#374151" rx="2"/>
  <rect x="105" y="56" width="5" height="12" fill="#374151" rx="2"/>
  
  <!-- Incline bench -->
  <rect x="45" y="85" width="25" height="15" fill="#e2e8f0" rx="6"/>
  <rect x="50" y="70" width="15" height="18" fill="#e2e8f0" rx="6" transform="rotate(-20 57.5 79)"/>
</svg>