<svg width="128" height="128" xmlns="http://www.w3.org/2000/svg" viewBox="0 0 128 128">
  <!-- Base -->
  <rect x="16" y="110" width="96" height="8" fill="#2d3748" rx="4"/>
  
  <!-- Main frame -->
  <rect x="30" y="25" width="6" height="90" fill="#4a5568" rx="3"/>
  <rect x="92" y="25" width="6" height="90" fill="#4a5568" rx="3"/>
  <rect x="30" y="25" width="68" height="6" fill="#4a5568" rx="3"/>
  
  <!-- Console -->
  <rect x="42" y="25" width="44" height="12" fill="#374151" rx="6"/>
  <rect x="45" y="28" width="38" height="6" fill="#9ca3af" rx="2"/>
  
  <!-- Handrails -->
  <rect x="25" y="40" width="4" height="50" fill="#6b7280" rx="2"/>
  <rect x="99" y="40" width="4" height="50" fill="#6b7280" rx="2"/>
  
  <!-- Step platforms (staggered) -->
  <rect x="40" y="75" width="20" height="6" fill="#e2e8f0" rx="3"/>
  <rect x="68" y="85" width="20" height="6" fill="#e2e8f0" rx="3"/>
  
  <!-- Step chains/mechanism -->
  <rect x="48" y="50" width="2" height="30" fill="#9ca3af"/>
  <rect x="78" y="50" width="2" height="40" fill="#9ca3af"/>
  
  <!-- Side panels -->
  <rect x="35" y="45" width="8" height="45" fill="#4a5568" rx="4"/>
  <rect x="85" y="45" width="8" height="45" fill="#4a5568" rx="4"/>
</svg>
