<svg width="128" height="128" xmlns="http://www.w3.org/2000/svg" viewBox="0 0 128 128">
  <!-- Base platform -->
  <rect x="8" y="110" width="112" height="12" fill="#1a202c" rx="6"/>
  <rect x="12" y="108" width="104" height="4" fill="#2d3748" rx="2"/>
  
  <!-- Seat with detailed padding -->
  <rect x="32" y="65" width="32" height="28" fill="#4a5568" rx="6"/>
  <rect x="34" y="67" width="28" height="24" fill="#e2e8f0" rx="4"/>
  <rect x="36" y="69" width="24" height="20" fill="#f7fafc" rx="3"/>
  
  <!-- Seat back with lumbar support -->
  <rect x="32" y="40" width="32" height="30" fill="#4a5568" rx="6"/>
  <rect x="34" y="42" width="28" height="26" fill="#e2e8f0" rx="4"/>
  <rect x="36" y="44" width="24" height="22" fill="#f7fafc" rx="3"/>
  
  <!-- Main vertical support -->
  <rect x="44" y="15" width="12" height="97" fill="#2d3748" rx="4"/>
  
  <!-- Triceps press cam mechanism -->
  <circle cx="50" cy="30" r="10" fill="#2d3748"/>
  <circle cx="50" cy="30" r="8" fill="#4a5568"/>
  <circle cx="50" cy="30" r="4" fill="#718096"/>
  
  <!-- Left triceps handle arm -->
  <rect x="20" y="50" width="28" height="8" fill="#4a5568" rx="3"/>
  <circle cx="18" cy="54" r="6" fill="#2d3748"/>
  <circle cx="18" cy="54" r="3" fill="#718096"/>
  
  <!-- Right triceps handle arm -->
  <rect x="52" y="40" width="28" height="8" fill="#4a5568" rx="3"/>
  <circle cx="82" cy="44" r="6" fill="#2d3748"/>
  <circle cx="82" cy="44" r="3" fill="#718096"/>
  
  <!-- Triceps handles with ergonomic design -->
  <rect x="8" y="48" width="16" height="12" fill="#1a202c" rx="4"/>
  <rect x="10" y="50" width="12" height="8" fill="#718096" rx="3"/>
  <rect x="84" y="38" width="16" height="12" fill="#1a202c" rx="4"/>
  <rect x="86" y="40" width="12" height="8" fill="#718096" rx="3"/>
  
  <!-- Handle grip texture -->
  <rect x="11" y="52" width="10" height="1" fill="#4a5568"/>
  <rect x="11" y="54" width="10" height="1" fill="#4a5568"/>
  <rect x="11" y="56" width="10" height="1" fill="#4a5568"/>
  <rect x="87" y="42" width="10" height="1" fill="#4a5568"/>
  <rect x="87" y="44" width="10" height="1" fill="#4a5568"/>
  <rect x="87" y="46" width="10" height="1" fill="#4a5568"/>
  
  <!-- Elbow support pads -->
  <ellipse cx="64" cy="55" rx="12" ry="8" fill="#e53e3e" transform="rotate(15 64 55)"/>
  <ellipse cx="64" cy="55" rx="10" ry="6" fill="#fc8181" transform="rotate(15 64 55)"/>
  <ellipse cx="64" cy="55" rx="8" ry="4" fill="#feb2b2" transform="rotate(15 64 55)"/>
  
  <!-- Elbow pad support arm -->
  <rect x="58" y="60" width="12" height="8" fill="#4a5568" rx="3"/>
  <rect x="60" y="62" width="8" height="4" fill="#718096" rx="2"/>
  
  <!-- Weight stack with individual plates -->
  <rect x="104" y="15" width="16" height="75" fill="#1a202c" rx="4"/>
  <rect x="106" y="18" width="12" height="8" fill="#4a5568" rx="1"/>
  <rect x="106" y="28" width="12" height="8" fill="#4a5568" rx="1"/>
  <rect x="106" y="38" width="12" height="8" fill="#e53e3e" rx="1"/>
  <rect x="106" y="48" width="12" height="8" fill="#4a5568" rx="1"/>
  <rect x="106" y="58" width="12" height="8" fill="#4a5568" rx="1"/>
  <rect x="106" y="68" width="12" height="8" fill="#4a5568" rx="1"/>
  <rect x="106" y="78" width="12" height="8" fill="#4a5568" rx="1"/>
  
  <!-- Weight stack guide rod -->
  <rect x="111.5" y="15" width="2" height="75" fill="#718096" rx="1"/>
  
  <!-- Pulley system -->
  <circle cx="94" cy="25" r="6" fill="#4a5568"/>
  <circle cx="94" cy="25" r="4" fill="#718096"/>
  <circle cx="94" cy="25" r="2" fill="#e2e8f0"/>
  
  <!-- Cable routing -->
  <rect x="88" y="25" width="12" height="2" fill="#e2e8f0"/>
  <rect x="82" y="25" width="2" height="19" fill="#e2e8f0"/>
  <rect x="18" y="25" width="2" height="29" fill="#e2e8f0"/>
  <rect x="18" y="25" width="66" height="2" fill="#e2e8f0"/>
  
  <!-- Safety pin -->
  <rect x="102" y="45" width="4" height="12" fill="#fbbf24" rx="1"/>
  <circle cx="104" cy="51" r="2" fill="#f59e0b"/>
  
  <!-- Support frame structure -->
  <rect x="20" y="15" width="68" height="8" fill="#2d3748" rx="3"/>
  
  <!-- Seat adjustment mechanism -->
  <rect x="42" y="94" width="12" height="8" fill="#2d3748" rx="3"/>
  <circle cx="48" cy="98" r="3" fill="#fbbf24"/>
  
  <!-- Support legs -->
  <rect x="36" y="90" width="6" height="22" fill="#2d3748" rx="1"/>
  <rect x="58" y="90" width="6" height="22" fill="#2d3748" rx="1"/>
  
  <!-- Footrest -->
  <rect x="20" y="98" width="68" height="8" fill="#4a5568" rx="3"/>
  <rect x="22" y="100" width="64" height="4" fill="#718096" rx="2"/>
  
  <!-- Elbow pad height adjustment -->
  <rect x="66" y="68" width="8" height="6" fill="#2d3748" rx="2"/>
  <circle cx="70" cy="71" r="2" fill="#fbbf24"/>
</svg>