<svg width="60" height="45" xmlns="http://www.w3.org/2000/svg" viewBox="0 0 60 45">
  <!-- Machine base -->
  <rect x="3" y="35" width="54" height="8" fill="#1a202c" rx="3"/>
  <rect x="5" y="32" width="50" height="4" fill="#2d3748" rx="2"/>
  
  <!-- Seat with enhanced detail -->
  <rect x="15" y="22" width="14" height="12" fill="#4a5568" rx="3"/>
  <rect x="16" y="23" width="12" height="10" fill="#e2e8f0" rx="2"/>
  <!-- Seat back -->
  <rect x="15" y="16" width="14" height="10" fill="#4a5568" rx="3"/>
  <rect x="16" y="17" width="12" height="8" fill="#e2e8f0" rx="2"/>
  
  <!-- Triceps press mechanism with cam -->
  <circle cx="22" cy="15" r="4" fill="#2d3748"/>
  <circle cx="22" cy="15" r="2" fill="#4a5568"/>
  
  <!-- Triceps handles with ergonomic design -->
  <rect x="8" y="20" width="10" height="3" fill="#4a5568" rx="1"/>
  <rect x="32" y="20" width="10" height="3" fill="#4a5568" rx="1"/>
  <circle cx="6" cy="21.5" r="2" fill="#e53e3e"/>
  <circle cx="44" cy="21.5" r="2" fill="#e53e3e"/>
  
  <!-- Press down mechanism -->
  <rect x="10" y="18" width="3" height="8" fill="#718096" rx="1"/>
  <rect x="32" y="18" width="3" height="8" fill="#718096" rx="1"/>
  
  <!-- Elbow pad support -->
  <ellipse cx="30" cy="20" rx="4" ry="3" fill="#e53e3e"/>
  <ellipse cx="30" cy="20" rx="3" ry="2" fill="#fc8181"/>
  
  <!-- Support frame structure -->
  <rect x="20" y="10" width="4" height="25" fill="#2d3748" rx="1"/>
  <rect x="12" y="10" width="20" height="4" fill="#2d3748" rx="1"/>
  
  <!-- Weight stack with enhanced detail -->
  <rect x="48" y="6" width="8" height="28" fill="#1a202c" rx="2"/>
  <rect x="49" y="8" width="6" height="3" fill="#4a5568" rx="0.5"/>
  <rect x="49" y="12" width="6" height="3" fill="#4a5568" rx="0.5"/>
  <rect x="49" y="16" width="6" height="3" fill="#e53e3e" rx="0.5"/>
  <rect x="49" y="20" width="6" height="3" fill="#4a5568" rx="0.5"/>
  <rect x="49" y="24" width="6" height="3" fill="#4a5568" rx="0.5"/>
  <rect x="49" y="28" width="6" height="3" fill="#4a5568" rx="0.5"/>
  
  <!-- Guide rod and cable system -->
  <rect x="51.5" y="6" width="1" height="28" fill="#718096"/>
  <rect x="44" y="14" width="1" height="12" fill="#e2e8f0"/>
  
  <!-- Pulley system -->
  <circle cx="40" cy="12" r="2" fill="#4a5568"/>
  <rect x="38" y="12" width="4" height="1" fill="#718096"/>
</svg>