<svg width="128" height="128" xmlns="http://www.w3.org/2000/svg" viewBox="0 0 128 128">
  <!-- Base platform -->
  <rect x="16" y="110" width="96" height="8" fill="#2d3748" rx="4"/>
  
  <!-- Main frame -->
  <rect x="20" y="30" width="6" height="85" fill="#4a5568" rx="3"/>
  <rect x="102" y="30" width="6" height="85" fill="#4a5568" rx="3"/>
  <rect x="20" y="30" width="88" height="6" fill="#4a5568" rx="3"/>
  
  <!-- V-squat platform -->
  <rect x="30" y="75" width="60" height="25" fill="#6b7280" rx="6"/>
  
  <!-- Foot plates -->
  <rect x="40" y="50" width="18" height="15" fill="#e53e3e" rx="3"/>
  <rect x="70" y="50" width="18" height="15" fill="#e53e3e" rx="3"/>
  
  <!-- Handles -->
  <rect x="25" y="55" width="12" height="4" fill="#6b7280" rx="2"/>
  <rect x="91" y="55" width="12" height="4" fill="#6b7280" rx="2"/>
  <circle cx="22" cy="57" r="3" fill="#e53e3e"/>
  <circle cx="106" cy="57" r="3" fill="#e53e3e"/>
  
  <!-- Shoulder pads -->
  <rect x="45" y="35" width="8" height="12" fill="#e2e8f0" rx="4"/>
  <rect x="75" y="35" width="8" height="12" fill="#e2e8f0" rx="4"/>
  
  <!-- Weight loading area -->
  <rect x="105" y="45" width="12" height="6" fill="#4a5568" rx="2"/>
  <rect x="105" y="60" width="12" height="6" fill="#4a5568" rx="2"/>
  
  <!-- Weight plates -->
  <rect x="112" y="40" width="6" height="16" fill="#374151" rx="2"/>
  <rect x="112" y="65" width="6" height="16" fill="#374151" rx="2"/>
</svg>