<svg width="60" height="45" xmlns="http://www.w3.org/2000/svg" viewBox="0 0 60 45">
  <!-- Machine base -->
  <rect x="3" y="35" width="54" height="8" fill="#1a202c" rx="3"/>
  <rect x="5" y="32" width="50" height="4" fill="#2d3748" rx="2"/>
  
  <!-- V-squat platform with angled design -->
  <polygon points="15,28 35,23 35,33 15,33" fill="#4a5568"/>
  <polygon points="16,28 34,24 34,32 16,32" fill="#718096"/>
  
  <!-- Foot plates with textured surface -->
  <rect x="18" y="18" width="8" height="8" fill="#e53e3e" rx="2"/>
  <rect x="28" y="18" width="8" height="8" fill="#e53e3e" rx="2"/>
  <rect x="19" y="19" width="6" height="6" fill="#fc8181" rx="1"/>
  <rect x="29" y="19" width="6" height="6" fill="#fc8181" rx="1"/>
  <!-- Grip texture -->
  <rect x="20" y="20" width="1" height="4" fill="#e53e3e"/>
  <rect x="22" y="20" width="1" height="4" fill="#e53e3e"/>
  <rect x="24" y="20" width="1" height="4" fill="#e53e3e"/>
  <rect x="30" y="20" width="1" height="4" fill="#e53e3e"/>
  <rect x="32" y="20" width="1" height="4" fill="#e53e3e"/>
  <rect x="34" y="20" width="1" height="4" fill="#e53e3e"/>
  
  <!-- Handle bars with grips -->
  <rect x="10" y="20" width="3" height="10" fill="#718096" rx="1"/>
  <rect x="42" y="20" width="3" height="10" fill="#718096" rx="1"/>
  <circle cx="8" cy="25" r="2" fill="#e53e3e"/>
  <circle cx="46" cy="25" r="2" fill="#e53e3e"/>
  
  <!-- Linear guide rails -->
  <rect x="12" y="13" width="3" height="22" fill="#2d3748" rx="1"/>
  <rect x="40" y="13" width="3" height="22" fill="#2d3748" rx="1"/>
  <rect x="13" y="15" width="1" height="18" fill="#718096"/>
  <rect x="41" y="15" width="1" height="18" fill="#718096"/>
  
  <!-- Support structure with cross-bracing -->
  <rect x="15" y="13" width="25" height="4" fill="#2d3748" rx="1"/>
  <rect x="25" y="8" width="4" height="27" fill="#2d3748" rx="1"/>
  
  <!-- Weight loading area -->
  <rect x="48" y="16" width="8" height="17" fill="#1a202c" rx="2"/>
  <rect x="49" y="18" width="6" height="3" fill="#4a5568" rx="0.5"/>
  <rect x="49" y="22" width="6" height="3" fill="#4a5568" rx="0.5"/>
  <rect x="49" y="26" width="6" height="3" fill="#e53e3e" rx="0.5"/>
  <rect x="49" y="30" width="6" height="3" fill="#4a5568" rx="0.5"/>
  
  <!-- Guide rod -->
  <rect x="51.5" y="16" width="1" height="17" fill="#718096"/>
  
  <!-- Safety stops -->
  <rect x="10" y="30" width="4" height="2" fill="#e53e3e" rx="1"/>
  <rect x="41" y="30" width="4" height="2" fill="#e53e3e" rx="1"/>
</svg>