<svg width="60" height="45" xmlns="http://www.w3.org/2000/svg" viewBox="0 0 60 45">
  <!-- Machine base/platform -->
  <rect x="8" y="35" width="40" height="8" fill="#2d3748" rx="2"/>
  
  <!-- V-squat platform -->
  <polygon points="15,30 35,25 35,35 15,35" fill="#718096"/>
  
  <!-- Foot plates -->
  <rect x="18" y="20" width="8" height="6" fill="#e53e3e" rx="1"/>
  <rect x="28" y="20" width="8" height="6" fill="#e53e3e" rx="1"/>
  
  <!-- Handle bars -->
  <rect x="10" y="22" width="3" height="8" fill="#718096" rx="1"/>
  <rect x="42" y="22" width="3" height="8" fill="#718096" rx="1"/>
  
  <!-- Support structure -->
  <rect x="12" y="15" width="3" height="20" fill="#2d3748"/>
  <rect x="40" y="15" width="3" height="20" fill="#2d3748"/>
  <rect x="15" y="15" width="25" height="3" fill="#2d3748"/>
  
  <!-- Weight loading area -->
  <rect x="48" y="18" width="8" height="15" fill="#2d3748" rx="1"/>
  <rect x="49" y="20" width="6" height="3" fill="#4a5568"/>
  <rect x="49" y="24" width="6" height="3" fill="#4a5568"/>
  <rect x="49" y="28" width="6" height="3" fill="#4a5568"/>
</svg>