<svg width="128" height="128" xmlns="http://www.w3.org/2000/svg" viewBox="0 0 128 128">
  <!-- Machine base -->
  <rect x="8" y="110" width="112" height="12" fill="#1a202c" rx="6"/>
  <rect x="12" y="108" width="104" height="4" fill="#2d3748" rx="2"/>
  
  <!-- V-squat platform with angled design -->
  <polygon points="32,85 96,70 96,100 32,100" fill="#4a5568"/>
  <polygon points="34,86 94,72 94,98 34,98" fill="#718096"/>
  <polygon points="36,87 92,74 92,96 36,96" fill="#9ca3af"/>
  
  <!-- Foot plates with textured surface -->
  <rect x="40" y="45" width="20" height="20" fill="#e53e3e" rx="4"/>
  <rect x="68" y="45" width="20" height="20" fill="#e53e3e" rx="4"/>
  <rect x="42" y="47" width="16" height="16" fill="#fc8181" rx="2"/>
  <rect x="70" y="47" width="16" height="16" fill="#fc8181" rx="2"/>
  
  <!-- Grip texture on foot plates -->
  <rect x="44" y="50" width="2" height="10" fill="#e53e3e"/>
  <rect x="48" y="50" width="2" height="10" fill="#e53e3e"/>
  <rect x="52" y="50" width="2" height="10" fill="#e53e3e"/>
  <rect x="56" y="50" width="2" height="10" fill="#e53e3e"/>
  <rect x="72" y="50" width="2" height="10" fill="#e53e3e"/>
  <rect x="76" y="50" width="2" height="10" fill="#e53e3e"/>
  <rect x="80" y="50" width="2" height="10" fill="#e53e3e"/>
  <rect x="84" y="50" width="2" height="10" fill="#e53e3e"/>
  
  <!-- Handle bars with detailed grips -->
  <rect x="20" y="50" width="8" height="24" fill="#1a202c" rx="3"/>
  <rect x="22" y="52" width="4" height="20" fill="#718096" rx="2"/>
  <rect x="100" y="50" width="8" height="24" fill="#1a202c" rx="3"/>
  <rect x="102" y="52" width="4" height="20" fill="#718096" rx="2"/>
  
  <!-- Handle grip texture -->
  <rect x="23" y="54" width="2" height="1" fill="#4a5568"/>
  <rect x="23" y="56" width="2" height="1" fill="#4a5568"/>
  <rect x="23" y="58" width="2" height="1" fill="#4a5568"/>
  <rect x="23" y="60" width="2" height="1" fill="#4a5568"/>
  <rect x="103" y="54" width="2" height="1" fill="#4a5568"/>
  <rect x="103" y="56" width="2" height="1" fill="#4a5568"/>
  <rect x="103" y="58" width="2" height="1" fill="#4a5568"/>
  <rect x="103" y="60" width="2" height="1" fill="#4a5568"/>
  
  <!-- Handle end grips -->
  <circle cx="16" cy="62" r="6" fill="#e53e3e"/>
  <circle cx="16" cy="62" r="4" fill="#fc8181"/>
  <circle cx="112" cy="62" r="6" fill="#e53e3e"/>
  <circle cx="112" cy="62" r="4" fill="#fc8181"/>
  
  <!-- Linear guide rails -->
  <rect x="28" y="25" width="8" height="65" fill="#2d3748" rx="2"/>
  <rect x="92" y="25" width="8" height="65" fill="#2d3748" rx="2"/>
  <rect x="30" y="30" width="4" height="55" fill="#718096" rx="1"/>
  <rect x="94" y="30" width="4" height="55" fill="#718096" rx="1"/>
  
  <!-- Linear bearing carriages -->
  <rect x="26" y="40" width="12" height="12" fill="#4a5568" rx="3"/>
  <rect x="28" y="42" width="8" height="8" fill="#718096" rx="2"/>
  <rect x="26" y="65" width="12" height="12" fill="#4a5568" rx="3"/>
  <rect x="28" y="67" width="8" height="8" fill="#718096" rx="2"/>
  <rect x="90" y="40" width="12" height="12" fill="#4a5568" rx="3"/>
  <rect x="92" y="42" width="8" height="8" fill="#718096" rx="2"/>
  <rect x="90" y="65" width="12" height="12" fill="#4a5568" rx="3"/>
  <rect x="92" y="67" width="8" height="8" fill="#718096" rx="2"/>
  
  <!-- Support structure with cross-bracing -->
  <rect x="32" y="25" width="64" height="10" fill="#2d3748" rx="3"/>
  <rect x="58" y="15" width="12" height="80" fill="#2d3748" rx="4"/>
  
  <!-- Diagonal support braces -->
  <rect x="40" y="35" width="6" height="30" fill="#2d3748" rx="2" transform="rotate(15 43 50)"/>
  <rect x="82" y="35" width="6" height="30" fill="#2d3748" rx="2" transform="rotate(-15 85 50)"/>
  
  <!-- Weight loading horns/pegs -->
  <rect x="105" y="35" width="16" height="8" fill="#4a5568" rx="3"/>
  <rect x="107" y="37" width="12" height="4" fill="#718096" rx="2"/>
  <rect x="105" y="50" width="16" height="8" fill="#4a5568" rx="3"/>
  <rect x="107" y="52" width="12" height="4" fill="#718096" rx="2"/>
  
  <!-- Weight plates (45lb plates) -->
  <rect x="115" y="30" width="8" height="18" fill="#1a202c" rx="3"/>
  <rect x="116" y="32" width="6" height="14" fill="#4a5568" rx="2"/>
  <circle cx="119" cy="39" r="2" fill="#718096"/>
  <text x="119" y="41" text-anchor="middle" fill="#e2e8f0" font-size="4" font-weight="bold">45</text>
  
  <rect x="115" y="60" width="8" height="18" fill="#1a202c" rx="3"/>
  <rect x="116" y="62" width="6" height="14" fill="#4a5568" rx="2"/>
  <circle cx="119" cy="69" r="2" fill="#718096"/>
  <text x="119" y="71" text-anchor="middle" fill="#e2e8f0" font-size="4" font-weight="bold">45</text>
  
  <!-- Safety stops -->
  <rect x="24" y="85" width="12" height="6" fill="#e53e3e" rx="2"/>
  <rect x="92" y="85" width="12" height="6" fill="#e53e3e" rx="2"/>
  <circle cx="30" cy="88" r="2" fill="#fc8181"/>
  <circle cx="98" cy="88" r="2" fill="#fc8181"/>
  
  <!-- Shoulder pads for support -->
  <ellipse cx="42" cy="30" rx="8" ry="6" fill="#e53e3e" transform="rotate(-15 42 30)"/>
  <ellipse cx="42" cy="30" rx="6" ry="4" fill="#fc8181" transform="rotate(-15 42 30)"/>
  <ellipse cx="86" cy="30" rx="8" ry="6" fill="#e53e3e" transform="rotate(15 86 30)"/>
  <ellipse cx="86" cy="30" rx="6" ry="4" fill="#fc8181" transform="rotate(15 86 30)"/>
  
  <!-- Platform angle adjustment mechanism -->
  <rect x="60" y="95" width="8" height="8" fill="#2d3748" rx="2"/>
  <circle cx="64" cy="99" r="2" fill="#fbbf24"/>
</svg>